<?xml version="1.0" encoding="UTF-8"?>
<svg width="64px" height="64px" viewBox="0 0 64 64" version="1.1" xmlns="http://www.w3.org/2000/svg" xmlns:xlink="http://www.w3.org/1999/xlink">
    <!-- Generator: Sketch 42 (36781) - http://www.bohemiancoding.com/sketch -->
    <title>logo</title>
    <desc>Created with Sketch.</desc>
    <defs></defs>
    <g id="ask" stroke="none" stroke-width="1" fill="none" fill-rule="evenodd">
        <g id="logo">
            <rect id="Rectangle-8" fill="#4DEBDF" x="0" y="0" width="64" height="64"></rect>
            <path d="M31.6582643,35.0602066 C31.8790217,34.9799311 32.120993,34.9799311 32.3417504,35.0602066 L54.3417504,43.0602066 C55.2010859,43.3726922 55.2249489,44.5793298 54.3786402,44.925547 L32.3786402,53.925547 C32.1359784,54.0248177 31.8640363,54.0248177 31.6213745,53.925547 L9.6213745,44.925547 C8.77506583,44.5793298 8.79892882,43.3726922 9.65826428,43.0602066 L31.6582643,35.0602066 Z" id="Path-5" fill="#FFFFFF" fill-rule="nonzero" opacity="0.75"></path>
            <path d="M36.5,14.5 L36.5,36.0503951 L40.6792934,28.2888503 C40.9409129,27.8029855 41.4481763,27.5 42,27.5 L49.5,27.5 L49.5,14.5 L36.5,14.5 Z M36.3207066,42.7111497 C35.5818937,44.0832309 33.5,43.5583489 33.5,42 L33.5,13 C33.5,12.1715729 34.1715729,11.5 35,11.5 L51,11.5 C51.8284271,11.5 52.5,12.1715729 52.5,13 L52.5,29 C52.5,29.8284271 51.8284271,30.5 51,30.5 L42.8959411,30.5 L36.3207066,42.7111497 Z" id="Rectangle-15" fill="#000000" fill-rule="nonzero" opacity="0.66"></path>
            <path d="M14,33.5 C13.1715729,33.5 12.5,32.8284271 12.5,32 L12.5,19 C12.5,18.1715729 13.1715729,17.5 14,17.5 L27,17.5 C27.8284271,17.5 28.5,18.1715729 28.5,19 L28.5,41 C28.5,42.4841119 26.5751617,43.0669061 25.7519246,41.8320503 L20.1972244,33.5 L14,33.5 Z M15.5,20.5 L15.5,30.5 L21,30.5 C21.5015298,30.5 21.9698768,30.7506517 22.2480754,31.1679497 L25.5,36.0458365 L25.5,20.5 L15.5,20.5 Z" id="Rectangle-15" fill="#000000" fill-rule="nonzero" opacity="0.5"></path>
        </g>
    </g>
</svg>