<?xml version="1.0" encoding="UTF-8"?>
<svg width="2400px" height="1200px" viewBox="0 0 2400 1200" version="1.1" xmlns="http://www.w3.org/2000/svg" xmlns:xlink="http://www.w3.org/1999/xlink" style="background: #FFFFFF;">
    <!-- Generator: Sketch 43.1 (39012) - http://www.bohemiancoding.com/sketch -->
    <title>opening-vectors</title>
    <desc>Created with Sketch.</desc>
    <defs>
        <path d="M1137.42857,121.205357 L1131.04464,121.205357 L1126.80357,112.901786 L1133.14286,112.901786 L1137.42857,121.205357 Z M1128.90179,125.223214 L1137.60714,125.223214 L1137.60714,131.026786 L1128.90179,131.026786 L1128.90179,125.223214 Z M1126.40179,160 L1131.04464,135.089286 L1137.02679,135.089286 L1132.38393,160 L1126.40179,160 Z M1172.33929,133.526786 L1160.19643,133.526786 L1173.14286,160 L1166.75893,160 L1156.53571,139.553571 L1146.49107,160 L1140.10714,160 L1153.05357,133.526786 L1140.86607,133.526786 L1140.86607,127.946429 L1153.63393,127.946429 L1153.63393,118.660714 L1144.34821,118.660714 L1144.34821,112.901786 L1168.67857,112.901786 L1168.67857,118.660714 L1159.61607,118.660714 L1159.61607,127.946429 L1172.33929,127.946429 L1172.33929,133.526786 Z M1225.91071,147.589286 L1225.91071,153.125 L1205.6875,153.125 L1205.6875,160 L1199.79464,160 L1199.79464,153.169643 L1179.03571,153.169643 L1179.03571,147.8125 L1199.79464,147.8125 L1199.79464,144.955357 L1183.1875,144.955357 L1183.1875,143.258929 L1183.1875,139.821429 L1183.1875,136.5625 L1183.1875,131.205357 L1183.1875,128.348214 L1183.1875,123.392857 L1183.1875,123.214286 L1222.07143,123.214286 L1222.07143,123.392857 L1222.07143,128.348214 L1222.07143,131.383929 L1222.07143,136.741071 L1222.07143,139.776786 L1222.07143,143.035714 L1222.07143,144.732143 L1205.6875,144.732143 L1205.6875,147.589286 L1225.91071,147.589286 Z M1188.94643,128.348214 L1188.94643,131.205357 L1216.40179,131.205357 L1216.40179,128.348214 L1188.94643,128.348214 Z M1188.94643,136.5625 L1188.94643,139.821429 L1216.40179,139.821429 L1216.40179,136.5625 L1188.94643,136.5625 Z M1191.04464,121.696429 L1191.04464,118.616071 L1179.97321,118.616071 L1179.97321,113.482143 L1191.04464,113.482143 L1191.04464,110.223214 L1196.58036,110.223214 L1196.58036,113.482143 L1208.58929,113.482143 L1208.58929,110.223214 L1214.125,110.223214 L1214.125,113.482143 L1225.15179,113.482143 L1225.15179,118.616071 L1214.125,118.616071 L1214.125,121.696429 L1208.58929,121.696429 L1208.58929,118.616071 L1196.58036,118.616071 L1196.58036,121.696429 L1191.04464,121.696429 Z" id="path-1"></path>
        <filter x="-6.0%" y="-12.1%" width="112.1%" height="124.1%" filterUnits="objectBoundingBox" id="filter-2">
            <feOffset dx="0" dy="0" in="SourceAlpha" result="shadowOffsetOuter1"></feOffset>
            <feGaussianBlur stdDeviation="2" in="shadowOffsetOuter1" result="shadowBlurOuter1"></feGaussianBlur>
            <feColorMatrix values="0 0 0 0 1   0 0 0 0 1   0 0 0 0 1  0 0 0 0.5 0" type="matrix" in="shadowBlurOuter1"></feColorMatrix>
        </filter>
    </defs>
    <g id="ask" stroke="none" stroke-width="1" fill="none" fill-rule="evenodd">
        <g id="opening-vectors">
            <rect id="background" fill="#4DEBDF" x="0" y="0" width="2400" height="1200"></rect>
            <g id="擂台" transform="translate(0.000000, 339.000000)" stroke="#4A4A4A" stroke-width="4" stroke-linecap="round" stroke-linejoin="round">
                <path d="M0,201 L300,1" id="left"></path>
                <path d="M300,1 L2100,1" id="center"></path>
                <path d="M2100,201 L2400,1" id="right" transform="translate(2250.000000, 101.000000) scale(-1, 1) translate(-2250.000000, -101.000000) "></path>
            </g>
            <g id="民眾第一" transform="translate(40.000000, -76.000000)">
                <path d="M119.5,113.6 L137.9,113.6 C137,108 136.5,102.1 136.3,96 L119.5,96 L119.5,113.6 Z M119.5,74.8 L119.5,93.2 L162.2,93.2 L162.2,74.8 L119.5,74.8 Z M186.3,130.7 L184.7,144.6 C188.6,148.7 189.8,151.7 187.8,155 C184.2,160.7 175.5,158.9 168.9,156.4 C150.1,148 141.9,133.5 138.4,116.4 L119.5,116.4 L119.5,139.8 C126.5,138.2 134.6,136.1 142.7,134 L142.9,135 C137.1,139.6 126.4,147.3 112.2,155.6 C111.2,157.4 109.9,158.5 108.6,159.2 L100.3,144.3 C104.3,141.8 104.9,140.6 104.9,137.7 L104.9,66.2 L120.9,72 L161.2,72 L167.6,65 L180.8,75 C180.2,75.8 179,76.7 176.9,77.1 L176.9,97.9 C176.8,98.7 169.7,101.5 164.8,101.5 L162.2,101.5 L162.2,96 L150.9,96 C150.8,102.2 151.3,108.1 152.5,113.6 L165.9,113.6 L173.6,103.9 C173.6,103.9 182.2,110.4 187.5,114.8 C187.2,115.9 186,116.4 184.5,116.4 L153.2,116.4 C156.3,128.1 163,137.5 175.1,142.4 C177,143.2 178.2,142.9 179.3,141.5 C180.9,139.3 183.5,134.5 185.3,130.5 L186.3,130.7 Z M111.1,225.4 L128.3,230.1 C127.9,231.4 126.7,232.3 124.4,232.3 C123.3,235.4 122.1,238.4 120.9,241.1 C141.8,248.5 129.6,265.9 119.7,256.9 C119.8,253.5 119.1,249.8 118,246.6 C111.9,256.9 103.9,263.9 94.1,268.8 L93,267.9 C101.8,258.1 108.9,242.9 111.1,225.4 Z M115.9,188.7 L115.9,205.2 L123.9,205.2 L123.9,188.7 L115.9,188.7 Z M144.7,188.7 L136.4,188.7 L136.4,205.2 L144.7,205.2 L144.7,188.7 Z M165.7,188.7 L157.3,188.7 L157.3,205.2 L165.7,205.2 L165.7,188.7 Z M170.8,211 L182.2,222.8 C180.8,223.8 178.1,224.1 174,222.3 C166.4,223.4 157.4,224.1 147.8,224.4 L147.8,270.6 C147.8,271.3 143.4,273.7 135.8,273.7 L133.1,273.7 L133.1,224.7 C120.5,224.8 107.5,224.2 95.7,223.1 L95.6,221.8 C119.2,219.7 148.3,213.9 164.7,208 L115.9,208 L115.9,210.6 C115.9,211.8 109.7,214.7 104.1,214.7 L102.2,214.7 L102.2,180.3 L117,185.9 L164.7,185.9 L170.8,179.2 L183.7,188.8 C183.1,189.6 181.8,190.5 179.7,191 L179.7,208.3 C179.6,208.9 174.9,210.4 170.8,211 Z M158.6,226.1 L176.7,230.4 C176.4,231.8 175.1,232.7 172.8,232.7 C171.7,236 170.5,239.1 169.1,241.9 C173.4,247.7 180.2,251.8 187.4,253.6 L187.2,254.7 C182.7,256.1 179.6,260.2 178.2,266.9 C172.2,262.1 168.9,255.7 166.7,246.7 C162.3,254.7 156.8,261 150.2,265.6 L149.1,264.8 C153.8,254.9 157.5,240.3 158.6,226.1 Z M116.5,354.5 L133.8,354.5 L133.8,342.7 L118.9,342.7 C118.2,346.3 117.3,351 116.5,354.5 Z M148.6,327.8 L148.6,339.9 L163.7,339.9 L163.7,327.8 L148.6,327.8 Z M167.2,354.5 L174.2,348.2 L186.3,357.9 C185.5,358.8 184.4,359.4 182.4,359.7 C181.3,371.2 179.3,377.3 174.4,380.1 C171.2,381.9 167.4,382.9 161.4,382.9 C161.5,379.1 161.1,375.7 159.5,373.8 C157.9,371.9 155.1,370.4 151,369.5 L151,368.5 C154.5,368.7 160.3,369 162.2,369 C163.6,369 164.3,368.9 164.9,368.4 C166.2,367.5 167.2,363.6 167.9,357.3 L148.6,357.3 L148.6,385.4 C148.5,386.2 144.1,388.8 136.6,388.8 L133.8,388.8 L133.8,368.8 C124.1,376.7 110.6,382.3 94.2,385.8 L93.6,384.7 C108.4,378.4 119.5,368.3 125.7,357.3 L116.5,357.3 L112,362.9 L99.7,356.2 C100.5,355.4 101.7,354.5 103,353.7 C104.4,347.8 106.1,338 106.6,332.9 L122.1,339.9 L133.8,339.9 L133.8,327.8 L102,327.8 L101.1,325 L162.7,325 L165.1,322.5 C163.2,322.8 161,322.4 158.9,320.8 C158.9,317.2 157.2,313.2 155.2,311 L156,310.5 C168.9,310.3 171.6,315.5 169.7,319.2 L181.4,327.8 C180.9,328.5 179.7,329.4 177.9,329.8 L177.9,344.2 C177.8,345.1 170.9,347.8 166.2,347.8 L163.7,347.8 L163.7,342.7 L148.6,342.7 L148.6,354.5 L167.2,354.5 Z M118.2,310.9 L119,310.4 C142.3,311.9 131,329 121.8,321.6 C121.8,317.7 120,313.4 118.2,310.9 Z M171.3,305.9 L177.6,297.9 C177.6,297.9 184.6,303.3 188.8,307.1 C188.6,308.2 187.5,308.7 186.1,308.7 L155.4,308.7 C149.9,314.7 143.4,318.9 136.4,321.8 L135.4,321 C138,317.5 140.5,313 142.6,308 C142.1,308.5 141.4,308.7 140.4,308.7 L115.9,308.7 C109.5,316.4 102,321.8 94.1,325.4 L93.1,324.6 C98.7,317.2 104.2,305.4 107,293.3 L125.3,298.9 C124.9,300.2 123.6,301.1 121.3,301 C120.3,302.7 119.2,304.4 118.1,305.9 L127.3,305.9 L132.9,298.2 C132.9,298.2 139.2,303.4 143,307 C144.8,302.7 146.3,297.9 147.4,293.1 L165,299.8 C164.5,301.1 163.2,301.9 160.9,301.7 C159.9,303.2 158.9,304.6 157.9,305.9 L171.3,305.9 Z M93.8,442.6 L94.7,445.8 L185.7,445.8 C187.4,445.8 188.6,445.3 188.9,444.2 C182.9,438.5 172.5,429.4 172.5,429.4 L163.2,442.6 L93.8,442.6 Z" id="民-眾-第-一" fill="#000000" opacity="0.356243207"></path>
                <path d="M27.2179022,260.067902 C28.7512432,258.067892 31.0512202,257.067902 34.1179022,257.067902 C37.1845842,257.067902 39.4845612,258.067892 41.0179022,260.067902 C42.5512432,262.067912 43.3179022,264.367889 43.3179022,266.967902 C43.3179022,267.634572 42.2512462,274.101174 40.1179022,286.367902 C37.7845572,299.634635 36.3845712,308.101217 35.9179022,311.767902 L32.3179022,311.767902 C31.3178972,304.03453 29.3512502,292.401313 26.4179022,276.867902 C26.0179002,274.534557 25.6845702,272.61791 25.4179022,271.117902 C25.1512342,269.617895 24.9845692,268.567905 24.9179022,267.967902 L24.9179022,266.967902 C24.9179022,264.367889 25.6845612,262.067912 27.2179022,260.067902 Z M40.4679022,320.017902 C42.1679107,321.784578 43.0179022,323.86789 43.0179022,326.267902 C43.0179022,328.734581 42.1512442,330.83456 40.4179022,332.567902 C38.6845602,334.301244 36.5845812,335.167902 34.1179022,335.167902 C31.6512232,335.167902 29.5512442,334.301244 27.8179022,332.567902 C26.0845602,330.83456 25.2179022,328.734581 25.2179022,326.267902 C25.2179022,323.801223 26.0845602,321.701244 27.8179022,319.967902 C29.5512442,318.23456 31.6512232,317.367902 34.1179022,317.367902 C36.6512482,317.367902 38.7678937,318.251227 40.4679022,320.017902 Z" id="！" fill="#000000" opacity="0.12" transform="translate(34.117902, 296.117902) rotate(-315.000000) translate(-34.117902, -296.117902) "></path>
                <path d="M250.217902,333.067902 C251.751243,331.067892 254.05122,330.067902 257.117902,330.067902 C260.184584,330.067902 262.484561,331.067892 264.017902,333.067902 C265.551243,335.067912 266.317902,337.367889 266.317902,339.967902 C266.317902,340.634572 265.251246,347.101174 263.117902,359.367902 C260.784557,372.634635 259.384571,381.101217 258.917902,384.767902 L255.317902,384.767902 C254.317897,377.03453 252.35125,365.401313 249.417902,349.867902 C249.0179,347.534557 248.68457,345.61791 248.417902,344.117902 C248.151234,342.617895 247.984569,341.567905 247.917902,340.967902 L247.917902,339.967902 C247.917902,337.367889 248.684561,335.067912 250.217902,333.067902 Z M263.467902,393.017902 C265.167911,394.784578 266.017902,396.86789 266.017902,399.267902 C266.017902,401.734581 265.151244,403.83456 263.417902,405.567902 C261.68456,407.301244 259.584581,408.167902 257.117902,408.167902 C254.651223,408.167902 252.551244,407.301244 250.817902,405.567902 C249.08456,403.83456 248.217902,401.734581 248.217902,399.267902 C248.217902,396.801223 249.08456,394.701244 250.817902,392.967902 C252.551244,391.23456 254.651223,390.367902 257.117902,390.367902 C259.651248,390.367902 261.767894,391.251227 263.467902,393.017902 Z" id="！" fill="#000000" opacity="0.25" transform="translate(257.117902, 369.117902) rotate(-315.000000) translate(-257.117902, -369.117902) "></path>
                <polygon id="Rectangle-11" stroke="#979797" stroke-width="4" stroke-linecap="round" stroke-linejoin="round" points="71 36 213 36 213 496 71 496"></polygon>
                <polygon id="Rectangle-12" stroke="#CCCCCC" stroke-width="4" stroke-linejoin="round" points="213 36 258 0 258 460 213 496"></polygon>
                <path d="M234.45,185.072422 C234.816668,182.472409 235.399996,180.222432 236.2,178.322422 C237.000004,176.422413 238.366657,173.739106 240.3,170.272422 C241.233338,168.605747 241.949997,166.939097 242.45,165.272422 C242.950002,163.605747 243.2,161.539101 243.2,159.072422 C243.2,155.872406 242.833337,152.705771 242.1,149.572422 C241.366663,146.439073 239.766679,144.872422 237.3,144.872422 C234.766654,144.872422 233.133337,146.305741 232.4,149.172422 C231.666663,152.039103 231.3,154.972407 231.3,157.972422 C231.3,159.772431 230.58334,161.489081 229.15,163.122422 C227.716659,164.755764 225.466682,165.572422 222.4,165.572422 C219.999988,165.572422 218.08334,164.839096 216.65,163.372422 C215.216659,161.905748 214.5,159.939101 214.5,157.472422 C214.5,154.939076 215.333325,152.439101 217,149.972422 C218.666675,147.505743 221.16665,145.47243 224.5,143.872422 C227.83335,142.272414 231.899976,141.472422 236.7,141.472422 C243.500034,141.472422 248.583316,142.739076 251.95,145.272422 C255.316683,147.805768 257.416662,150.372409 258.25,152.972422 C259.083337,155.572435 259.5,157.705747 259.5,159.372422 C259.5,163.105774 258.78334,166.255743 257.35,168.822422 C255.916659,171.389102 253.833347,173.572413 251.1,175.372422 C247.433315,177.772434 244.666676,179.939079 242.8,181.872422 C240.933324,183.805765 239.650003,185.839078 238.95,187.972422 C238.249996,190.105766 237.9,192.839072 237.9,196.172422 L233.9,196.172422 C233.9,191.372398 234.083331,187.672435 234.45,185.072422 Z M243.15,204.422422 C244.850008,206.189098 245.7,208.27241 245.7,210.672422 C245.7,213.139101 244.833342,215.23908 243.1,216.972422 C241.366658,218.705764 239.266679,219.572422 236.8,219.572422 C234.333321,219.572422 232.233342,218.705764 230.5,216.972422 C228.766658,215.23908 227.9,213.139101 227.9,210.672422 C227.9,208.205743 228.766658,206.105764 230.5,204.372422 C232.233342,202.63908 234.333321,201.772422 236.8,201.772422 C239.333346,201.772422 241.449991,202.655747 243.15,204.422422 Z" id="？" fill="#FFFFFF" opacity="0.85" transform="translate(237.000000, 180.522422) rotate(-315.000000) translate(-237.000000, -180.522422) "></path>
            </g>
            <g id="國家至上" transform="translate(2063.000000, 6.000000)">
                <path d="M40.9724224,148.072422 C41.3390909,145.472409 41.9224184,143.222432 42.7224224,141.322422 C43.5224264,139.422413 44.8890794,136.739106 46.8224224,133.272422 C47.7557604,131.605747 48.4724199,129.939097 48.9724224,128.272422 C49.4724249,126.605747 49.7224224,124.539101 49.7224224,122.072422 C49.7224224,118.872406 49.3557594,115.705771 48.6224224,112.572422 C47.8890854,109.439073 46.2891014,107.872422 43.8224224,107.872422 C41.2890764,107.872422 39.6557594,109.305741 38.9224224,112.172422 C38.1890854,115.039103 37.8224224,117.972407 37.8224224,120.972422 C37.8224224,122.772431 37.1057629,124.489081 35.6724224,126.122422 C34.2390819,127.755764 31.9891044,128.572422 28.9224224,128.572422 C26.5224104,128.572422 24.6057629,127.839096 23.1724224,126.372422 C21.7390819,124.905748 21.0224224,122.939101 21.0224224,120.472422 C21.0224224,117.939076 21.8557474,115.439101 23.5224224,112.972422 C25.1890974,110.505743 27.6890724,108.47243 31.0224224,106.872422 C34.3557724,105.272414 38.4223984,104.472422 43.2224224,104.472422 C50.0224564,104.472422 55.1057389,105.739076 58.4724224,108.272422 C61.8391059,110.805768 63.9390849,113.372409 64.7724224,115.972422 C65.6057599,118.572435 66.0224224,120.705747 66.0224224,122.372422 C66.0224224,126.105774 65.3057629,129.255743 63.8724224,131.822422 C62.4390819,134.389102 60.3557694,136.572413 57.6224224,138.372422 C53.9557374,140.772434 51.1890984,142.939079 49.3224224,144.872422 C47.4557464,146.805765 46.1724259,148.839078 45.4724224,150.972422 C44.7724189,153.105766 44.4224224,155.839072 44.4224224,159.172422 L40.4224224,159.172422 C40.4224224,154.372398 40.6057539,150.672435 40.9724224,148.072422 Z M49.6724224,167.422422 C51.3724309,169.189098 52.2224224,171.27241 52.2224224,173.672422 C52.2224224,176.139101 51.3557644,178.23908 49.6224224,179.972422 C47.8890804,181.705764 45.7891014,182.572422 43.3224224,182.572422 C40.8557434,182.572422 38.7557644,181.705764 37.0224224,179.972422 C35.2890804,178.23908 34.4224224,176.139101 34.4224224,173.672422 C34.4224224,171.205743 35.2890804,169.105764 37.0224224,167.372422 C38.7557644,165.63908 40.8557434,164.772422 43.3224224,164.772422 C45.8557684,164.772422 47.9724139,165.655747 49.6724224,167.422422 Z" id="？" fill="#FFFFFF" transform="translate(43.522422, 143.522422) rotate(-315.000000) translate(-43.522422, -143.522422) "></path>
                <path d="M82.2179022,437.067902 C83.7512432,435.067892 86.0512202,434.067902 89.1179022,434.067902 C92.1845842,434.067902 94.4845612,435.067892 96.0179022,437.067902 C97.5512432,439.067912 98.3179022,441.367889 98.3179022,443.967902 C98.3179022,444.634572 97.2512462,451.101174 95.1179022,463.367902 C92.7845572,476.634635 91.3845712,485.101217 90.9179022,488.767902 L87.3179022,488.767902 C86.3178972,481.03453 84.3512502,469.401313 81.4179022,453.867902 C81.0179002,451.534557 80.6845702,449.61791 80.4179022,448.117902 C80.1512342,446.617895 79.9845692,445.567905 79.9179022,444.967902 L79.9179022,443.967902 C79.9179022,441.367889 80.6845612,439.067912 82.2179022,437.067902 Z M95.4679022,497.017902 C97.1679107,498.784578 98.0179022,500.86789 98.0179022,503.267902 C98.0179022,505.734581 97.1512442,507.83456 95.4179022,509.567902 C93.6845602,511.301244 91.5845812,512.167902 89.1179022,512.167902 C86.6512232,512.167902 84.5512442,511.301244 82.8179022,509.567902 C81.0845602,507.83456 80.2179022,505.734581 80.2179022,503.267902 C80.2179022,500.801223 81.0845602,498.701244 82.8179022,496.967902 C84.5512442,495.23456 86.6512232,494.367902 89.1179022,494.367902 C91.6512482,494.367902 93.7678937,495.251227 95.4679022,497.017902 Z" id="！" fill="#000000" opacity="0.12" transform="translate(89.117902, 473.117902) rotate(-315.000000) translate(-89.117902, -473.117902) "></path>
                <rect id="Rectangle-10" stroke="#CCCCCC" stroke-width="4" stroke-linecap="round" stroke-linejoin="round" x="92" y="45" width="145" height="504"></rect>
                <polygon id="Rectangle" stroke="#979797" stroke-width="4" stroke-linecap="round" stroke-linejoin="round" points="50 0 92 45 92 549 50 504"></polygon>
                <path d="M163.570997,74.6559318 L163.687123,75.817185 C159.274361,79.5331951 152.190716,84.8749597 141.855563,91.7263534 C141.274937,93.3521078 140.113683,94.3972357 138.72018,94.7456116 L131.404285,78.8364432 C137.094425,78.3719419 150.448837,76.6300622 163.570997,74.6559318 Z M149.984335,65.5981571 L149.984335,50.9663672 L145.455448,50.9663672 L145.455448,65.5981571 L149.984335,65.5981571 Z M129.662405,104.732389 L198.756968,104.732389 L198.756968,51.0824925 C197.944091,51.7792444 196.550587,52.1276204 194.692582,51.8953697 C191.324948,61.3015204 187.028311,69.1980419 182.151048,75.817185 C183.428427,78.3719419 184.938056,80.6944483 186.679935,82.6685787 C187.841189,84.1782078 188.421815,84.0620825 189.350818,82.436328 C190.860447,79.8815711 193.066828,74.8881824 194.692582,70.707671 L195.853836,71.056047 L193.879705,87.3135913 C197.131214,93.4682331 197.711841,96.8358673 195.853836,98.8099977 C190.860447,103.687261 182.615549,99.274499 179.015665,95.2101129 C176.577033,92.30698 174.486777,89.2877217 172.628772,86.0362129 C164.964501,92.8876065 155.906727,97.8809952 145.455448,101.48088 L144.41032,100.203501 C153.468095,94.513361 161.829118,86.7329648 168.448261,76.9784381 C165.545128,69.0819166 163.803248,60.4886432 162.874246,51.3147431 C162.293619,51.5469938 161.712992,51.7792444 161.01624,51.8953697 L161.01624,68.7335407 C161.01624,69.6625432 155.674476,72.2173002 151.84234,72.2173002 L149.984335,72.2173002 L149.984335,68.849666 L145.455448,68.849666 L145.455448,70.9399217 C145.455448,71.7527989 140.69431,74.1914305 136.281548,74.1914305 L134.771919,74.1914305 L134.771919,43.185971 L145.919949,47.7148583 L149.171458,47.7148583 L154.048721,42.7214697 L162.641995,49.1083621 C162.293619,46.0891039 162.061368,42.9537203 161.945243,39.8183368 L132.565538,39.8183368 L131.636535,36.5668279 L161.829118,36.5668279 C161.596867,31.5734393 161.480742,26.5800507 161.480742,21.3544114 L179.015665,24.2575443 C178.783414,25.6510481 177.622161,26.9284266 174.951279,27.1606773 L174.951279,36.5668279 L180.757544,36.5668279 L184.357429,31.8056899 C183.312301,27.9735545 180.87367,24.0252937 178.783414,21.7027874 L179.828542,21.0060355 C197.131214,21.3544114 197.363465,30.6444368 192.370076,33.663695 C194.111956,35.0571988 195.853836,36.5668279 197.247339,37.9603317 C196.898963,39.2377102 195.73771,39.8183368 194.111956,39.8183368 L175.067404,39.8183368 C175.299654,47.1342317 175.880281,54.2178761 177.15766,60.7208938 C179.480166,55.2630039 181.338171,49.2244874 182.615549,42.837595 L198.756968,49.6889887 L198.756968,19.380281 L129.662405,19.380281 L129.662405,104.732389 Z M204.91161,8 L219.195024,19.380281 C218.382147,20.4254089 216.872518,21.3544114 214.550012,21.935038 L214.550012,112.280534 C214.317761,113.441788 207.117991,117.157798 201.1956,117.157798 L198.756968,117.157798 L198.756968,107.983898 L129.662405,107.983898 L129.662405,111.932158 C129.662405,113.906289 123.391638,117.738424 116.772495,117.738424 L114.217738,117.738424 L114.217738,9.50962912 L130.939783,16.1287722 L197.595715,16.1287722 L204.91161,8 Z M141.282142,234.79343 C146.159403,235.257702 153.469467,235.721746 156.255103,235.721746 C157.880857,235.721746 159.158235,235.489496 159.738862,234.444368 C160.667865,232.586363 161.480742,229.334854 161.712992,225.386593 C155.618816,228.817768 148.689015,232.023099 141.282142,234.79343 L141.282142,234.79343 Z M141.274937,234.796124 C131.88829,238.30643 121.735707,241.118065 111.546856,242.80539 L110.850104,241.295761 C130.243032,234.328242 149.635959,220.277079 160.435614,205.87754 L160.319489,205.064663 C148.242456,212.380557 131.055909,219.464202 114.91449,223.412463 L114.333863,222.135084 C128.617277,215.05144 143.945819,201.929279 152.887468,190.316747 C141.971689,196.239138 128.965653,200.884151 115.611242,204.13566 L114.91449,202.858282 C128.268901,196.355264 140.462059,186.136236 148.474706,177.194587 L128.617277,177.194587 L127.688275,173.943078 L181.10592,173.943078 L189.234692,163.607924 C189.234692,163.607924 193.76358,167.091684 198.408592,170.807694 C198.640843,167.672311 198.640843,163.72405 198.640843,160.472541 L129.197904,160.472541 C130.243032,169.065814 127.339899,175.104331 123.043262,177.775213 C118.978876,180.32997 112.708109,178.936466 110.966229,173.826952 C109.4566,168.949689 112.359733,165.233679 116.424119,163.375674 C120.256254,161.285418 125.017392,155.943654 124.901267,150.137388 L126.294771,150.137388 C127.339899,152.576019 128.036651,155.014651 128.617277,157.221032 L159.738862,157.221032 C159.274361,156.988781 158.925985,156.756531 158.461484,156.52428 C157.996982,150.950265 154.745473,145.260124 150.913338,142.124741 L151.61009,141.544114 C177.15766,138.408731 177.15766,152.80827 169.493389,157.221032 L197.363465,157.221032 L205.259986,149.208385 L219.078899,162.214421 C218.149896,163.259548 216.988643,163.607924 214.550012,163.72405 C211.066252,166.627183 205.259986,170.227067 200.382723,172.549574 C201.660101,173.478576 202.705229,174.407579 203.750357,175.336581 C203.518106,176.61396 202.124603,177.194587 200.498848,177.194587 L171.235268,177.194587 C167.519258,180.910597 162.990371,184.394356 157.880857,187.52974 C162.061368,190.781249 165.545128,194.613384 168.21601,198.561645 C178.551163,192.058627 189.815319,183.000852 195.73771,177.194587 L212.227505,191.013499 C211.530753,191.942502 210.3695,192.523128 207.698618,191.826376 C200.382723,194.497259 190.628196,197.168141 180.409168,199.490647 C188.189565,215.167565 203.750357,223.064087 219.195024,227.94135 L218.962774,229.218728 C212.692006,230.612232 208.046994,235.721746 205.724487,243.502142 C191.557199,233.747616 182.615549,221.670583 177.854411,200.071274 C175.299654,200.535775 172.744897,201.116402 170.190141,201.580903 C179.944667,218.070698 179.247915,237.812002 173.209399,245.708523 C169.95789,249.889035 163.222622,251.282539 154.048721,251.282539 C153.932596,246.637526 153.003594,243.269892 151.145589,240.947385 C149.635959,239.08938 146.1522,237.347501 141.274937,235.953997 L141.274937,234.796124 L141.274937,234.796124 Z M141.274937,234.796124 C141.277339,234.795226 141.27974,234.794328 141.282142,234.79343 C141.27974,234.793201 141.277338,234.792972 141.274937,234.792744 L141.274937,234.796124 L141.274937,234.796124 Z M152.422967,289.487768 L114.101613,289.487768 L113.17261,286.236259 L189.931444,286.236259 L199.22147,274.739853 C199.22147,274.739853 209.672748,282.404123 216.059641,287.629763 C215.711265,288.907141 214.433886,289.487768 212.692006,289.487768 L158.345358,289.487768 L173.790025,297.035913 C173.209399,298.197167 171.815895,299.010044 169.377263,298.661668 C162.061368,304.119558 149.519834,310.390325 137.791177,314.919212 C151.029463,314.106335 168.796637,312.828956 187.725063,311.319327 C183.544552,306.209813 179.015665,301.448675 174.719028,297.61654 L175.64803,296.803663 C224.188413,303.771182 215.595139,336.983022 198.524718,328.041373 C196.666713,323.860862 193.879705,319.4481 190.744322,315.267588 C175.880281,319.68035 154.977724,325.13824 128.965653,331.060631 C128.036651,332.105759 127.107648,332.918636 126.06252,333.383138 L118.746625,315.615964 C118.746625,315.615964 121.998134,315.035337 123.623889,314.338586 C133.146164,310.854826 146.616701,297.964916 152.422967,289.487768 Z M192.0217,375.188252 L201.660101,362.995093 C201.660101,362.995093 212.459756,371.123865 218.962774,376.581755 C218.614398,377.859134 217.220894,378.43976 215.479014,378.43976 L110.733978,378.43976 L109.804976,375.188252 L154.861599,375.188252 L154.861599,348.711679 L121.533633,348.711679 L120.60463,345.46017 L154.861599,345.46017 L154.861599,325.254365 L176.809284,326.996245 C176.577033,328.622 175.880281,329.783253 172.628772,330.363879 L172.628772,345.46017 L184.938056,345.46017 L194.228081,333.615388 C194.228081,333.615388 204.67936,341.51191 211.066252,346.853674 C210.717876,348.131053 209.324372,348.711679 207.582493,348.711679 L172.628772,348.711679 L172.628772,375.188252 L192.0217,375.188252 Z M192.486201,508.848491 L169.725639,508.848491 L169.725639,457.985602 L208.046994,457.985602 C209.788874,457.985602 211.066252,457.404976 211.414628,456.127597 C205.027736,450.553582 194.344206,442.42481 194.344206,442.42481 L184.82193,454.734094 L169.725639,454.734094 L169.725639,415.367611 C172.977148,414.90311 173.790025,413.741857 174.022276,411.999977 L151.145589,409.909721 L151.145589,508.848491 L109.224349,508.848491 L110.153352,512.1 L216.291891,512.1 C218.033771,512.1 219.427275,511.519373 219.775651,510.241995 C213.156508,504.66798 202.240728,496.423082 202.240728,496.423082 L192.486201,508.848491 Z" id="國-家-至-上" fill="#000000" opacity="0.180140399"></path>
                <path d="M256.972422,382.072422 C257.339091,379.472409 257.922418,377.222432 258.722422,375.322422 C259.522426,373.422413 260.889079,370.739106 262.822422,367.272422 C263.75576,365.605747 264.47242,363.939097 264.972422,362.272422 C265.472425,360.605747 265.722422,358.539101 265.722422,356.072422 C265.722422,352.872406 265.355759,349.705771 264.622422,346.572422 C263.889085,343.439073 262.289101,341.872422 259.822422,341.872422 C257.289076,341.872422 255.655759,343.305741 254.922422,346.172422 C254.189085,349.039103 253.822422,351.972407 253.822422,354.972422 C253.822422,356.772431 253.105763,358.489081 251.672422,360.122422 C250.239082,361.755764 247.989104,362.572422 244.922422,362.572422 C242.52241,362.572422 240.605763,361.839096 239.172422,360.372422 C237.739082,358.905748 237.022422,356.939101 237.022422,354.472422 C237.022422,351.939076 237.855747,349.439101 239.522422,346.972422 C241.189097,344.505743 243.689072,342.47243 247.022422,340.872422 C250.355772,339.272414 254.422398,338.472422 259.222422,338.472422 C266.022456,338.472422 271.105739,339.739076 274.472422,342.272422 C277.839106,344.805768 279.939085,347.372409 280.772422,349.972422 C281.60576,352.572435 282.022422,354.705747 282.022422,356.372422 C282.022422,360.105774 281.305763,363.255743 279.872422,365.822422 C278.439082,368.389102 276.355769,370.572413 273.622422,372.372422 C269.955737,374.772434 267.189098,376.939079 265.322422,378.872422 C263.455746,380.805765 262.172426,382.839078 261.472422,384.972422 C260.772419,387.105766 260.422422,389.839072 260.422422,393.172422 L256.422422,393.172422 C256.422422,388.372398 256.605754,384.672435 256.972422,382.072422 Z M265.672422,401.422422 C267.372431,403.189098 268.222422,405.27241 268.222422,407.672422 C268.222422,410.139101 267.355764,412.23908 265.622422,413.972422 C263.88908,415.705764 261.789101,416.572422 259.322422,416.572422 C256.855743,416.572422 254.755764,415.705764 253.022422,413.972422 C251.28908,412.23908 250.422422,410.139101 250.422422,407.672422 C250.422422,405.205743 251.28908,403.105764 253.022422,401.372422 C254.755764,399.63908 256.855743,398.772422 259.322422,398.772422 C261.855768,398.772422 263.972414,399.655747 265.672422,401.422422 Z" id="？" fill="#FFFFFF" opacity="0.5" transform="translate(259.522422, 377.522422) rotate(-315.000000) translate(-259.522422, -377.522422) "></path>
            </g>
            <g id="watchout" opacity="0.5" fill-rule="nonzero">
                <use fill="black" fill-opacity="1" filter="url(#filter-2)" xlink:href="#path-1"></use>
                <use fill="#FFFFFF" fill-rule="evenodd" xlink:href="#path-1"></use>
            </g>
            <path d="M606.246563,598.794515 L542.484616,598.794515 L582.645099,465.366297 L466.410985,583.059468 L424.168083,564.443435 L434.634373,540.643914 L328.205237,600 L294,584.221186 L408.038698,450.326758 L390.258258,454.787146 L401.750187,394.975316 L437.895586,389.670042 C448.194506,380.20694 468.852552,359.807894 476.652236,352.276231 C471.757334,332.255862 460.987406,308.510573 451.613741,290.817445 C482.011123,261.209334 525.978673,213.455205 557.135602,173.485825 L597.778619,196.655487 C583.800328,216.045998 540.986771,262.806815 518.654804,286.103972 C520.464321,290.294149 524.429407,297.335816 525.443654,301.525993 C547.78836,276.849237 568.730586,251.707222 585.047658,229.823917 L624.788216,254.651002 C605.177863,279.445738 576.981125,310.253626 548.127291,339.928339 L588.882925,323.076291 C591.10744,363.22835 590.455984,398.428121 587.314135,429.667966 L571.788613,434.483245 L589.495495,442.606708 L600.080517,407.439286 L800.032018,407.439286 L760.993863,596.967735 L694.408462,596.967735 L698.164803,580.983408 L611.112843,580.983408 L606.246563,598.794515 Z M1297.78447,250.792881 L1294.96561,165.390905 L1346.84288,168.032124 L1351.87276,250.792881 L1377.49754,250.792881 L1377.09236,245.31254 L1479.30309,245.31254 L1477.28019,229.328213 L1386.77164,229.328213 L1382.51995,175.894891 L1609.75845,175.894891 L1620.49322,229.328213 L1527.56272,229.328213 L1530.00286,245.31254 L1636.67517,245.31254 L1657.43636,345.328758 L1606.69368,345.328758 L1597.84765,296.919082 L1537.88101,296.919082 L1554.26477,404.24242 L1499.41649,404.24242 L1485.83417,296.919082 L1428.37445,296.919082 L1433.1059,345.328758 L1384.48675,345.328758 L1381.98819,311.533323 L1355.56432,311.533323 L1358.8673,365.880035 L1388.44517,358.116219 L1400.13034,413.833017 C1387.68953,418.399967 1375.17501,422.966918 1362.58662,427.077173 L1368.88726,530.746952 C1371.1635,568.199752 1361.23574,599.124668 1306.74281,599.068532 C1297.47276,599.058066 1276.52962,599.25121 1276.52962,599.25121 L1263.84923,537.597377 L1307.26353,537.976054 L1304.25128,446.715061 L1268.25053,457.531122 L1254.01838,391.911654 C1267.49627,389.171483 1283.96654,385.517923 1302.0806,380.950972 L1299.78933,311.533323 L1259.52002,311.533323 L1258.73295,250.792881 L1297.78447,250.792881 Z M1406.30138,413.833017 L1654.46559,413.833017 L1691.44433,599.25121 L1626.71068,599.25121 L1624.52091,586.463749 L1481.95623,586.463749 L1483.34763,599.25121 L1421.48104,599.25121 L1406.30138,413.833017 Z M2106,596.967735 L2032.70816,596.967735 L2028.57125,585.093664 L1852.24697,585.093664 L1855.96174,598.794515 L1785.95744,598.794515 L1737.60146,397.848689 L2030.26536,397.848689 L2106,596.967735 Z M882.508381,598.794515 L813.47289,598.794515 L889.840784,181.375232 L1045.95492,181.375232 L1028.3089,358.116219 L919.303769,358.116219 L882.508381,598.794515 Z M990.343839,559.062045 L927.214282,559.062045 L950.960388,384.147838 L1123.49264,384.147838 L1115.64744,532.573732 L1158.00599,532.859166 L1163.90613,358.572914 L1051.87203,358.572914 L1067.52848,181.375232 L1227.56508,181.375232 L1226.48976,522.069745 C1226.35135,565.923888 1217.76253,597.986736 1156.75714,598.093298 C1135.79163,598.130405 1097.76488,598.794515 1097.76488,598.794515 L1080.16884,533.943817 L993.050991,533.943817 L990.343839,559.062045 Z M1515.30238,537.140682 L1513.40136,522.069745 L1474.94954,522.069745 L1476.58941,537.140682 L1515.30238,537.140682 Z M1616.07467,537.140682 L1613.49388,522.069745 L1573.18849,522.069745 L1575.49555,537.140682 L1616.07467,537.140682 Z M725.210458,465.896253 L642.556498,465.896253 L626.959447,522.983136 L711.794954,522.983136 L725.210458,465.896253 Z M1986.34541,463.084724 L1819.58904,463.084724 L1834.85255,519.33909 L2005.9517,519.33909 L1986.34541,463.084724 Z M541.215514,416.363868 L408.786474,450.138371 L448.239345,468.814344 L427.260695,496.416803 L485.000511,449.596045 L517.243532,463.505264 L498.489833,488.972674 L557.661989,438.847537 L540.5938,444.098579 C541.01112,434.893319 541.209951,425.647147 541.215514,416.363868 Z M1056.59547,480.0538 L1060.00951,438.037855 L1003.38739,438.037855 L998.859061,480.0538 L1056.59547,480.0538 Z M1605.75149,476.856935 L1603.40532,463.156083 L1564.16999,463.156083 L1566.26732,476.856935 L1605.75149,476.856935 Z M1507.69833,476.856935 L1505.97014,463.156083 L1468.53917,463.156083 L1470.02995,476.856935 L1507.69833,476.856935 Z M1426.68281,358.572914 L1486.77773,358.572914 L1491.6735,398.305385 L1430.41699,398.305385 L1426.68281,358.572914 Z M1554.16989,358.572914 L1618.12806,358.572914 L1625.56272,398.305385 L1560.3683,398.305385 L1554.16989,358.572914 Z M1718.19962,315.840529 C1733.04383,277.326863 1748.20311,224.013424 1753.14711,160 L1822.84863,186.010686 C1814.02616,237.495443 1800.39127,278.551377 1786.79542,310.231742 L1931.4477,298.299633 C1914.37814,284.370433 1896.955,271.143403 1878.9928,258.799316 L1905.41331,213.962327 C1960.2561,250.765289 2020.53128,296.969508 2073.88537,343.163262 L2036.00875,392.064837 C2022.35228,378.990989 2008.72453,366.134072 1995.01943,353.592084 L1704.26113,389.796585 L1671.32074,319.654884 L1718.19962,315.840529 Z M735.510336,176.595157 L600.900762,328.874415 L615.857369,387.358023 L793.027775,386.790009 L837.783731,332.368133 L781.597948,176.80733 L735.510336,176.595157 Z M538.723721,349.436159 C528.45735,359.708943 518.22372,369.748623 508.394064,379.249783 L540.206645,374.514426 C539.823129,366.179742 539.323744,357.819368 538.723721,349.436159 Z M1545.7708,310.163238 L1593.1424,310.163238 L1599.85262,347.612233 L1551.59717,347.612233 L1545.7708,310.163238 Z M1435.35299,308.336458 L1480.99771,308.336458 L1485.61977,345.785453 L1439.12265,345.785453 L1435.35299,308.336458 Z M1171.07154,242.942483 L1111.24118,242.942483 L1105.88563,327.925822 L1135.4432,288.59962 L1169.59369,288.870783 L1171.07154,242.942483 Z M740.128846,249.895665 L675.868804,326.490087 L765.864992,326.93917 L740.128846,249.895665 Z M985.899789,225.413004 L937.919029,225.413004 L931.050368,272.973989 L956.599563,272.837932 L976.244716,300.378547 L985.899789,225.413004 Z" id="title" fill="#FFFFFF" opacity="0.75"></path>
            <polygon id="Path-10" stroke="#FFFFFF" stroke-width="4" opacity="0.65" stroke-linecap="round" stroke-linejoin="round" points="1200 1200 2105 596.820007 1836.35938 546.550781"></polygon>
            <polygon id="Path-10" stroke="#FFFFFF" stroke-width="4" opacity="0.65" stroke-linecap="round" stroke-linejoin="round" points="1200 1200 1737.4707 397.625 1836.35938 546.550781"></polygon>
            <polygon id="Path-10" stroke="#FFFFFF" stroke-width="4" opacity="0.65" stroke-linecap="round" stroke-linejoin="round" points="1200 1200 1405.21875 414.0625 1690.30078 600"></polygon>
            <polygon id="Path-10" stroke="#FFFFFF" stroke-width="4" opacity="0.65" stroke-linecap="round" stroke-linejoin="round" points="1200 1200 1484.41797 427.449219 1253.1875 391.332031"></polygon>
            <polygon id="Path-10" stroke="#FFFFFF" stroke-width="4" opacity="0.65" stroke-linecap="round" stroke-linejoin="round" points="1200 1200 811.269531 600 1279.32812 577.6875"></polygon>
            <polygon id="Path-10" stroke="#FFFFFF" stroke-width="4" opacity="0.65" stroke-linecap="round" stroke-linejoin="round" points="1200 1200 800.001953 407.212891 542.458984 598.417969"></polygon>
            <polygon id="Path-10" stroke="#FFFFFF" stroke-width="4" opacity="0.65" stroke-linecap="round" stroke-linejoin="round" points="1200 1200 294 584.51001 592.167969 447.113281"></polygon>
            <g id="legislators" transform="translate(1561.000000, 508.000000)">
                <path d="M333.349279,295.815326 C333.349279,295.815326 328.347326,292.932513 323.094397,292.415912 C317.841467,291.89931 312.635412,292.195208 312.635412,292.195208 C312.635412,292.195208 309.564123,287.478412 305.799475,283.739154 C302.034826,279.999896 298.307287,276.657122 298.307287,276.657122 C298.307287,276.657122 297.318029,273.867083 298.542639,272.448138 C299.767248,271.029193 303.957678,266.921771 304.083654,265.36513 C304.209631,263.80849 304.510412,262.215716 304.510412,262.215716 L302.691076,261.065326 L306.518225,258.924701 C306.518225,258.924701 305.230139,257.380755 303.925451,256.600482 C302.620764,255.820208 300.512365,254.726458 300.512365,254.726458 C300.512365,254.726458 300.983068,249.759662 300.735998,246.707904 C300.488928,243.656146 299.673498,240.844622 299.673498,240.844622 C299.673498,240.844622 302.397131,238.821185 303.700842,236.233294 C305.004553,233.645404 305.376623,226.452044 304.250647,222.938372 C303.12467,219.424701 300.327795,213.854388 298.378576,211.861224 C296.429358,209.86806 293.572912,208.496966 293.572912,208.496966 C293.572912,208.496966 293.248693,202.342669 290.920568,194.835833 C288.592443,187.328997 286.014318,185.537005 283.750647,182.244037 C281.486975,178.951068 277.735022,174.792865 274.949865,172.834857 C272.164709,170.876849 271.547522,169.241107 268.638342,168.21474 C265.729162,167.188372 262.922522,166.693255 260.395178,165.547747 C257.867834,164.40224 253.777014,162.474505 246.335608,161.99306 C238.894201,161.511615 236.130529,161.760638 231.991858,162.234271 C227.853186,162.707904 226.046545,165.199115 223.404943,165.544818 C220.763342,165.890521 215.326818,167.389544 211.029943,170.906146 C206.733068,174.422747 204.885412,176.818255 204.793615,177.828021 C204.701818,178.837787 207.18717,178.919818 207.18717,178.919818 C207.18717,178.919818 198.954748,184.179583 191.99674,190.750872 C185.038733,197.322162 184.720373,198.499896 182.552404,200.712787 C180.384436,202.925677 178.073889,205.450091 177.293615,207.709857 C176.513342,209.969622 176.769201,214.61513 173.171545,218.637591 C169.573889,222.660052 169.15299,222.451068 168.025061,228.55849 C166.897131,234.665912 167.423498,237.875872 171.227209,245.580951 C175.03092,253.286029 179.951818,256.715716 179.951818,256.715716 C179.951818,256.715716 179.90592,254.955951 180.421545,252.645404 C180.93717,250.334857 182.648108,248.259662 182.648108,248.259662 C182.648108,248.259662 183.088537,251.387591 184.569983,253.385638 C186.051428,255.383685 187.2526,256.051654 187.510412,257.814349 C187.768225,259.577044 187.050451,263.957904 187.907873,271.508685 C188.765295,279.059466 191.597326,283.504779 194.040686,290.227435 C196.484045,296.950091 199.519201,301.224505 200.936193,303.80263 C202.353186,306.380755 204.473303,308.983294 204.473303,308.983294 C204.473303,308.983294 198.676428,309.758685 192.979162,312.471576 C187.281897,315.184466 183.099279,319.171771 178.528967,320.269427 C173.958654,321.367083 171.888342,321.767474 168.764318,322.405169 C165.640295,323.042865 164.514318,321.761615 162.008459,324.114154 C159.5026,326.466693 159.176428,328.182513 158.74967,330.031146 C158.322912,331.879779 156.720373,336.147357 155.253576,340.737201 C153.786779,345.327044 153.166662,349.259662 151.865881,350.054583 C150.5651,350.849505 148.661779,351.950091 148.191076,353.088763 C147.720373,354.227435 148.777014,356.474505 147.548498,357.398333 C146.319983,358.322162 144.896154,358.931537 141.535803,362.636615 C138.175451,366.341693 137.154943,369.703021 133.098303,370.662005 C129.041662,371.62099 126.889318,370.404193 126.889318,370.404193 C126.889318,370.404193 124.503576,371.030169 123.645178,373.328997 C122.786779,375.627826 120.285803,377.476458 120.285803,377.476458 C120.285803,377.476458 117.764318,379.792865 114.881506,381.025287 C111.998693,382.257708 110.210608,384.124896 110.210608,384.124896 C110.210608,384.124896 112.494787,378.284076 112.967443,375.27138 C113.4401,372.258685 116.06217,368.476458 116.06217,368.476458 L113.724279,366.989154 C113.724279,366.989154 116.798498,358.484271 121.932287,349.700091 C127.066076,340.915912 129.149084,337.320208 129.603186,335.265521 C130.057287,333.210833 129.942053,331.577044 133.62174,329.953997 C137.301428,328.330951 140.860998,321.648333 143.956701,316.553607 C147.052404,311.45888 147.991858,305.168841 149.775061,303.630755 C151.558264,302.092669 152.392248,293.557513 153.271154,290.247943 C154.150061,286.938372 155.929358,284.562396 155.972326,280.078997 C156.015295,275.595599 156.076818,270.685443 156.076818,270.685443 C156.076818,270.685443 156.666662,268.481341 158.529943,265.392474 C160.393225,262.303607 159.305334,259.451068 157.216467,260.008685 C155.1276,260.566302 152.430334,261.008685 149.03385,264.059466 C145.637365,267.110247 145.37174,268.593646 144.251623,272.160052 C143.131506,275.726458 143.708654,282.258685 143.708654,282.258685 L140.820959,280.626849 C140.820959,280.626849 140.591467,276.405169 141.049475,268.584857 C141.507483,260.764544 140.494787,252.486224 140.788733,242.200091 C141.082678,231.913958 139.993811,228.621966 138.036779,226.444232 C136.079748,224.266497 133.178381,225.721576 132.439123,228.536029 C131.699865,231.350482 131.046545,234.181537 130.74967,238.267474 C130.452795,242.353412 130.80924,244.664935 129.486975,252.328997 C128.164709,259.99306 126.558264,265.197162 126.558264,265.197162 C126.558264,265.197162 125.793615,263.792865 125.895178,258.248919 C125.99674,252.704974 124.97135,243.338763 125.72135,234.878802 C126.47135,226.418841 124.737951,218.764544 122.785803,216.24599 C120.833654,213.727435 118.579748,213.044818 116.520178,215.351458 C114.460608,217.658099 114.804358,221.133685 115.130529,224.877826 C115.456701,228.621966 115.902014,231.309466 114.9401,234.878802 C113.978186,238.448138 113.901037,241.781146 113.6276,244.103412 C113.354162,246.425677 113.247717,250.186419 113.247717,250.186419 C113.247717,250.186419 111.894201,245.131732 111.366858,237.763568 C110.839514,230.395404 110.674475,225.829974 109.522131,223.800677 C108.369787,221.77138 107.067053,218.691302 103.012365,219.692279 C98.9576778,220.693255 99.6266231,224.932513 99.53092,228.877826 C99.4352169,232.823138 99.56217,233.904193 100.025061,244.452044 C100.487951,254.999896 100.383459,268.217669 100.383459,268.217669 C100.383459,268.217669 97.046545,262.959857 94.7457638,253.33974 C92.4449825,243.719622 90.5738888,239.003802 88.1910763,236.71181 C85.8082638,234.419818 82.9801388,236.321185 82.8639278,240.359271 C82.7477169,244.397357 82.9225216,248.650287 84.4117794,256.40224 C85.9010372,264.154193 86.6149044,269.887591 87.2613888,272.890521 C87.9078731,275.893451 86.0865841,282.722552 87.1803341,294.883685 C88.2740841,307.044818 91.9664669,313.439349 92.3326778,317.780169 C92.6988888,322.12099 93.0084591,325.801654 93.0084591,325.801654 C93.0084591,325.801654 90.71842,330.120013 88.2662716,334.686419 C85.8141231,339.252826 85.6754513,346.072162 82.2418575,350.672747 C78.8082638,355.273333 75.537756,358.656146 75.537756,358.656146 C75.537756,358.656146 70.1227169,361.672747 65.1139278,369.468646 C60.1051388,377.264544 58.2291622,380.767474 55.6432247,383.575091 C53.0572872,386.382708 47.3951778,393.881732 43.71842,401.077044 C40.0416622,408.272357 39.6695919,414.812396 39.1109981,418.429583 C38.5524044,422.046771 36.8883419,423.380755 36.9322872,427.367083 C36.9762325,431.353412 36.5787716,432.577044 39.8395138,439.55556 C43.100256,446.534076 44.6051388,451.548724 48.3951778,455.972552 C52.1852169,460.39638 53.84342,462.957904 57.2330685,466.438372 C60.6227169,469.918841 62.9928341,469.374896 69.3893185,467.953021 C75.7858028,466.531146 80.4674435,464.824115 80.4674435,464.824115 C80.4674435,464.824115 83.865881,468.870013 87.0192013,470.348529 C90.1725216,471.827044 93.0514278,473.637591 99.6988888,471.500872 C106.34635,469.364154 106.925451,469.655169 112.603186,469.99306 C118.28092,470.330951 120.68424,467.769427 125.724279,466.278216 C130.764318,464.787005 134.902014,461.483294 138.43424,460.890521 C141.966467,460.297747 146.066076,456.77724 151.034826,456.423724 C156.003576,456.070208 156.262365,454.106341 159.591467,452.729388 C162.920568,451.352435 174.333654,447.92763 174.333654,447.92763 C174.333654,447.92763 177.920568,452.107318 179.595373,458.280169 C181.270178,464.453021 180.459631,474.17763 184.009436,487.128802 C187.55924,500.079974 185.730139,511.187396 187.492834,527.945208 C189.255529,544.703021 191.367834,553.61513 194.423498,565.005755 C197.479162,576.39638 196.034826,594.481341 194.604162,614.050677 C193.173498,633.620013 193.353186,666.33681 193.847326,668.572162 C194.341467,670.807513 195.248693,672.367083 199.330725,673.935443 C203.412756,675.503802 206.081701,678.074115 211.589514,681.21474 C217.097326,684.355365 222.794592,689.42763 222.794592,689.42763 C222.794592,689.42763 227.204748,709.567279 227.686193,738.607318 C228.167639,767.647357 231.995764,791.987201 231.995764,791.987201 L432.138342,791.890521 L407.052404,342.366107 L333.349279,295.815326 Z" id="Path-4" fill="#00F258" transform="translate(234.534888, 476.860047) rotate(-7.000000) translate(-234.534888, -476.860047) "></path>
                <path d="M663.74258,22.9042938 C663.74258,22.9042938 664.59219,21.7514618 665.918362,20.8295868 C667.244533,19.9077118 669.784573,19.0078094 669.784573,19.0078094 L668.262112,22.724118 C668.262112,22.724118 669.689846,21.9213836 671.615627,21.5776336 C673.541408,21.2338836 676.407619,21.3950164 676.407619,21.3950164 L674.94717,23.7822235 C674.94717,23.7822235 681.65176,23.7539032 684.432522,24.1235321 C687.213283,24.493161 690.191799,27.048825 692.826565,27.6103485 C695.46133,28.1718719 697.902248,28.2246063 704.294826,30.5673797 C710.687405,32.9101532 716.505764,36.8764618 719.300686,38.8706024 C722.095608,40.864743 725.850979,45.0283172 728.840237,48.2802703 C731.829494,51.5322235 731.966701,54.7846649 733.06094,56.1157196 C734.155178,57.4467743 734.753811,59.267575 734.959865,60.7919891 C735.16592,62.3164032 737.331448,64.4956024 737.362209,66.1245086 C737.392971,67.7534149 736.22842,68.7783172 736.22842,68.7783172 C736.22842,68.7783172 736.663479,72.0776336 737.903713,76.423825 C739.143948,80.7700164 738.826565,83.9399383 738.017971,85.1757782 C737.209377,86.411618 736.0126,88.2734344 736.0126,88.2734344 L733.397854,90.0815399 C733.397854,90.0815399 733.601955,92.9736297 733.000393,93.868161 C732.39883,94.7626922 732.291408,95.5961883 732.040432,96.75195 C731.789455,97.9077118 730.542385,99.1655243 730.463772,100.229489 C730.385158,101.293454 730.204983,105.113278 730.204983,105.113278 L730.740139,110.041989 C730.740139,110.041989 732.578518,109.729977 734.755764,112.200192 C736.93301,114.670407 737.403713,118.297848 735.892483,121.966306 C734.381252,125.634763 730.516506,137.369138 727.715725,140.673825 C724.914944,143.978513 722.729885,146.705075 720.806057,147.488766 C718.882229,148.272458 712.115139,152.824216 710.073147,156.107419 C708.031155,159.390622 703.208889,170.131345 703.208889,170.131345 C703.208889,170.131345 708.426174,169.686032 709.32803,170.430661 C710.229885,171.17529 712.519436,173.745602 713.192287,175.153317 C713.865139,176.561032 714.331936,177.717282 715.1376,177.979977 C715.943264,178.242673 718.204983,178.324216 719.923244,179.265622 C721.641506,180.207028 724.646389,181.538083 727.143459,181.223141 C729.64053,180.9082 730.047756,180.39404 735.233791,179.918942 C740.419826,179.443845 745.232326,182.263181 745.232326,182.263181 C745.232326,182.263181 740.995998,178.983395 740.68008,176.156735 C740.364162,173.330075 740.321682,170.760739 742.875881,169.151364 C745.43008,167.541989 757.036526,165.64404 757.036526,165.64404 C757.036526,165.64404 753.715237,162.270016 751.542385,162.372556 C749.369533,162.475095 746.303127,164.453122 744.058498,164.796872 C741.813869,165.140622 737.219631,166.274899 734.758205,165.582028 C732.29678,164.889157 731.274319,163.304196 731.395412,162.214352 C731.516506,161.124509 730.612698,160.652829 730.612698,160.652829 C730.612698,160.652829 726.331936,161.645505 722.210354,161.241208 C718.088772,160.836911 714.34219,157.25488 715.182033,155.27197 C716.021877,153.289059 716.591213,150.970212 722.622463,150.732907 C728.653713,150.495602 729.422756,150.553708 732.605862,150.049313 C735.788967,149.544919 744.500393,148.393063 745.670315,148.041989 C746.840237,147.690915 747.09219,145.448239 748.888576,145.278806 C750.684963,145.109372 755.45303,147.547848 763.079494,147.85986 C770.705959,148.171872 777.612698,148.556638 782.622463,148.320309 C787.632229,148.083981 791.573147,151.660641 793.813869,155.070798 C796.054592,158.480954 797.252346,163.654294 802.032619,166.684079 C806.812893,169.713864 810.348537,171.604489 814.450588,177.53027 C818.552639,183.456052 813.107815,190.515622 813.647854,192.471677 C814.187893,194.427731 815.689846,195.826657 815.689846,195.826657 C815.689846,195.826657 820.527248,201.685056 823.391994,209.101071 C826.25674,216.517087 825.949612,220.395016 827.974026,224.242673 C829.99844,228.090329 833.934963,232.964352 834.737698,239.480466 C835.540432,245.996579 835.402737,251.488278 836.340725,254.554684 C837.278713,257.621091 839.224514,261.58154 838.462795,265.68652 C837.701076,269.791501 835.367092,276.794919 834.785061,279.934567 C834.20303,283.074216 831.133205,291.33447 821.633694,298.719235 C812.134182,306.104001 804.138576,310.367184 795.440334,313.559567 C786.742092,316.75195 775.701565,318.548825 775.701565,318.548825 C775.701565,318.548825 770.008694,326.493161 769.427639,329.58154 C768.846584,332.669919 767.602932,334.347165 767.293362,336.719235 C766.983791,339.091306 767.161526,342.49072 765.916897,346.673825 C764.672268,350.856931 760.724514,356.364255 759.65176,362.267087 C758.579006,368.169919 758.723537,369.996579 757.445705,372.373044 C756.167873,374.749509 755.552639,376.892087 755.552639,376.892087 C755.552639,376.892087 758.719143,386.060544 759.214748,394.388669 C759.710354,402.716794 763.696194,413.306149 764.386135,421.89404 C765.076076,430.481931 766.952053,438.023434 768.535549,444.019528 C770.119045,450.015622 772.404201,458.224118 772.528225,465.687497 C772.652248,473.150876 774.179592,480.508298 776.641018,487.30322 C779.102444,494.098141 781.633205,504.933591 783.859768,514.534665 C786.08633,524.135739 793.485744,551.37695 793.485744,551.37695 C793.485744,551.37695 789.818752,555.84277 784.275295,559.290036 C778.731838,562.737302 773.647365,565.889645 766.286037,569.468259 C758.924709,573.046872 750.136623,573.983395 750.136623,573.983395 C750.136623,573.983395 752.127834,583.42236 755.06924,597.282223 C758.010647,611.142087 763.288479,630.458005 767.488186,647.444333 C771.687893,664.430661 782.463772,738.343747 782.463772,738.343747 L666.940941,774.058841 C666.940941,774.058841 644.546291,710.918942 635.360744,687.56152 C626.175198,664.204098 617.649807,645.760739 617.649807,645.760739 C617.649807,645.760739 621.497463,683.958005 621.499416,710.06738 C621.501369,736.176755 616.967205,777.266769 616.967205,777.266769 L516.372174,778.024051 C516.372174,778.024051 507.177151,715.672848 504.37051,686.026364 C501.563869,656.37988 496.790432,600.215817 496.790432,600.215817 L480.274807,222.174802 C480.274807,222.174802 531.155067,203.636426 566.629299,188.273434 C602.103531,172.910443 613.549221,164.457028 613.549221,164.457028 C613.549221,164.457028 610.627346,156.218747 610.321682,153.517575 C610.016018,150.816403 609.463283,148.182614 609.463283,148.182614 C609.463283,148.182614 608.057033,147.948727 606.804592,147.423825 C605.552151,146.898923 604.337307,146.365231 604.325588,145.653317 C604.313869,144.941403 604.380276,142.542966 605.902737,140.862302 C607.425198,139.181638 608.015041,137.979001 608.015041,137.979001 C608.015041,137.979001 605.067776,134.495602 603.437893,129.692868 C601.80801,124.890134 599.832912,115.443845 600.267483,109.389645 C600.702053,103.335446 600.624905,100.2207 602.063869,98.993161 C603.502834,97.7656219 607.808987,97.423825 608.603908,97.442868 C609.39883,97.461911 608.58633,95.696286 607.712307,93.3325164 C606.838283,90.9687469 606.207912,89.0378387 606.285305,87.9909637 C606.362698,86.9440887 607.321194,84.8359344 607.321194,84.8359344 L605.001125,85.6406219 L607.128567,80.0957 L606.327053,78.4018524 L607.023586,75.765866 L605.718655,72.2766082 L606.584377,69.9108856 L606.649319,66.3891571 L605.596828,65.1306121 L606.81216,63.3281219 L605.927883,61.2724578 L607.864406,57.7126434 L610.73843,50.9125946 L609.630031,50.3513153 C609.630031,50.3513153 610.743069,48.1276825 611.489162,47.4343231 C612.235256,46.7409637 613.407864,45.7170379 613.407864,45.7170379 C613.407864,45.7170379 615.923244,41.0444305 622.503567,36.4743621 C629.083889,31.9042938 634.194485,28.9262664 634.194485,28.9262664 C634.194485,28.9262664 636.948391,26.9340789 639.910549,26.1362274 C642.872707,25.3383758 644.808254,25.1308563 644.808254,25.1308563 C644.808254,25.1308563 646.126369,24.4934051 648.962551,24.4208953 C651.798733,24.3483856 657.112209,26.6630828 657.112209,26.6630828 C657.112209,26.6630828 658.810451,24.8561981 660.534328,24.0324676 C662.258205,23.2087371 663.74258,22.9042938 663.74258,22.9042938 Z" id="Path-6" fill="#3636FF" transform="translate(659.455270, 398.515930) rotate(7.000000) translate(-659.455270, -398.515930) "></path>
                <path d="M468.784506,27.5015686 C468.784506,27.5015686 463.065756,26.6753967 457.963217,27.7720764 C452.860678,28.8687561 447.805014,30.8228576 447.805014,30.8228576 C447.805014,30.8228576 442.196616,30.469342 438.320639,33.679303 C434.444662,36.8892639 431.016928,41.8062561 431.016928,41.8062561 C431.016928,41.8062561 426.49642,43.6500061 424.389975,47.078717 C422.28353,50.507428 424.013998,54.8326233 424.013998,54.8326233 C424.013998,54.8326233 425.362631,60.0875061 425.362631,63.4166076 C425.362631,66.7457092 425.833334,70.0992248 425.833334,70.0992248 C425.833334,70.0992248 422.639975,74.7613342 421.679037,79.4585998 C420.7181,84.1558655 422.180991,90.2388733 422.180991,90.2388733 C422.180991,90.2388733 419.296225,98.5572326 418.509116,103.316998 C417.722006,108.076764 417.729819,111.040631 417.729819,111.040631 C417.729819,111.040631 415.195639,121.432233 415.041342,130.659772 C414.887045,139.887311 416.817709,146.119733 416.817709,146.119733 C416.817709,146.119733 415.776694,150.959576 417.701498,158.594342 C419.626303,166.229108 423.365561,174.186139 423.365561,174.186139 L428.298178,190.633405 C428.298178,190.633405 420.325522,196.550397 416.645834,197.538678 C412.966147,198.526959 404.440756,201.476178 397.856772,203.159772 C391.272787,204.843365 384.081381,206.962506 379.862631,207.950787 C375.643881,208.939069 369.788412,209.276959 364.841147,210.780865 C359.893881,212.284772 352.37435,215.517194 348.87435,216.806256 C345.37435,218.095319 343.709311,219.938092 343.709311,219.938092 C343.709311,219.938092 343.008139,221.845319 343.18685,224.26817 C343.365561,226.691022 343.278647,229.904889 343.278647,229.904889 C343.278647,229.904889 340.190756,234.125592 339.517905,241.300397 C338.845053,248.475201 341.362631,256.960553 341.362631,256.960553 C341.362631,256.960553 337.660483,261.474225 336.973959,267.915631 C336.287436,274.357037 338.09603,280.502545 338.09603,280.502545 C338.09603,280.502545 335.839194,284.191998 333.917319,288.058209 C331.995444,291.92442 333.348959,295.462506 333.348959,295.462506 C333.348959,295.462506 329.108725,298.18028 328.660483,300.329694 C328.212241,302.479108 330.710287,306.715436 331.182944,309.233014 C331.6556,311.750592 332.59017,313.453717 331.550131,316.293561 C330.510092,319.133405 325.323569,331.493756 324.473959,335.862897 C323.62435,340.232037 322.292319,344.623639 321.597006,348.658795 C320.901694,352.693951 319.55892,360.886334 317.782553,363.876569 C316.006186,366.866803 316.650717,369.116803 317.148764,371.563092 C317.646811,374.009381 316.082358,376.24278 315.476889,380.760358 C314.87142,385.277936 314.399741,389.270123 314.400717,391.990826 C314.401694,394.71153 314.362631,399.036725 314.362631,399.036725 C314.362631,399.036725 313.774741,403.73399 314.09603,407.604108 C314.417319,411.474225 316.776694,416.287701 318.554037,420.17442 C320.331381,424.061139 324.37728,426.913678 327.769858,429.33067 C331.162436,431.747662 333.110678,434.946881 336.255209,435.075787 C339.399741,435.204694 347.407553,436.169537 355.352866,433.856061 C363.298178,431.542584 371.96517,427.684186 374.453452,425.651959 C376.941733,423.619733 385.086264,421.119733 385.086264,421.119733 L387.581381,423.232037 C387.581381,423.232037 382.698569,439.692975 382.18392,442.036725 C381.669272,444.380475 380.528647,444.632428 379.130209,447.726178 C377.731772,450.819928 371.553061,474.197858 368.821616,519.420514 C366.09017,564.64317 364.65267,601.902936 364.65267,601.902936 C364.65267,601.902936 369.653647,605.944928 372.177084,608.747662 C374.700522,611.550397 379.051108,614.42149 380.012045,616.794537 C380.972983,619.167584 381.974936,621.407819 381.543295,625.298444 C381.111655,629.189069 379.129233,630.841412 380.735678,647.901959 C382.342123,664.962506 384.595053,688.606061 387.772787,706.76817 C390.950522,724.93028 396.744467,754.874615 397.413412,765.123639 C398.082358,775.372662 398.710287,808.137311 398.710287,808.137311 L486.886069,806.097272 C486.886069,806.097272 490.269858,783.630475 491.575522,765.779889 C492.881186,747.929303 490.990561,733.129498 492.875327,715.241803 C494.760092,697.354108 500.223959,672.443951 500.223959,672.443951 L524.498373,673.400006 C524.498373,673.400006 534.772787,694.08067 540.260092,721.428326 C545.747397,748.775983 551.261069,772.89024 554.075522,786.95274 C556.889975,801.01524 560.49642,814.002545 560.49642,814.002545 L625.698569,812.760358 C625.698569,812.760358 626.973959,801.816022 626.923178,781.837506 C626.872397,761.85899 623.391928,734.425397 622.930991,708.748639 C622.470053,683.071881 616.864584,642.906842 616.864584,642.906842 C616.864584,642.906842 622.77767,634.183209 629.145834,623.17442 C635.513998,612.165631 637.699545,608.116803 637.943686,605.013287 C638.187827,601.909772 631.184897,546.876569 628.953452,500.591412 C626.722006,454.306256 622.659506,438.566022 622.659506,438.566022 C622.659506,438.566022 623.207358,430.871686 623.903647,415.167584 C624.599936,399.463483 622.784506,393.387311 623.547202,388.85899 C624.309897,384.33067 626.913412,364.624615 628.087241,359.697858 C629.261069,354.7711 629.399741,350.057233 629.399741,350.057233 C629.399741,350.057233 633.727866,357.269147 639.094077,360.575787 C644.460287,363.882428 652.240561,367.740826 655.432944,372.159772 C658.625327,376.578717 664.684897,381.70274 669.602866,384.109967 C674.520834,386.517194 681.331381,394.191022 683.412436,397.991803 C685.493491,401.792584 687.68685,402.808209 690.921225,404.128522 C694.1556,405.448834 698.5931,407.831647 698.5931,407.831647 L699.708334,409.810162 C699.708334,409.810162 702.356772,409.548444 704.355795,410.837506 C706.354819,412.126569 708.692709,415.792584 708.692709,415.792584 C708.692709,415.792584 710.284506,415.032819 711.831381,416.0211 C713.378256,417.009381 714.099936,419.45274 717.323569,419.968365 C720.547202,420.48399 723.956381,421.655865 723.956381,421.655865 C723.956381,421.655865 725.188803,423.443951 728.410483,423.93028 C731.632162,424.416608 739.302084,425.504498 742.361655,424.791608 C745.421225,424.078717 748.036459,421.918561 748.87435,420.79942 C749.712241,419.68028 751.112631,418.981061 753.2181,418.981061 C755.323569,418.981061 759.170248,414.376569 759.469077,412.835553 C759.767905,411.294537 763.556967,405.45567 765.104819,403.43028 C766.65267,401.404889 766.694662,395.088483 768.047202,391.133405 C769.399741,387.178326 768.894858,386.392194 771.695639,383.141217 C774.49642,379.89024 776.7181,375.950787 776.825522,374.519147 C776.932944,373.087506 776.041342,368.825787 775.671225,362.70274 C775.301108,356.579694 773.259116,347.434186 773.302084,340.932233 C773.345053,334.43028 773.056967,326.446881 771.412436,325.30528 C769.767905,324.163678 771.354819,320.168561 771.848959,318.657819 C772.3431,317.147076 777.143881,316.151959 780.672202,314.14903 C784.200522,312.1461 787.459311,312.237897 787.459311,312.237897 C787.459311,312.237897 793.99935,313.127545 797.995444,313.561139 C801.991537,313.994733 805.451498,313.85899 807.578452,311.794537 C809.705405,309.730084 808.46517,306.133405 805.28353,305.484967 C802.101889,304.83653 797.001303,304.431256 791.591147,303.89317 C786.180991,303.355084 780.293295,301.432233 780.293295,301.432233 C780.293295,301.432233 780.169272,299.628522 783.373373,297.925397 C786.577475,296.222272 793.724936,294.769147 800.481772,292.562115 C807.238608,290.355084 811.837241,288.600201 813.233725,286.30235 C814.630209,284.004498 815.350912,280.750592 812.325522,279.194928 C809.300131,277.639264 806.919272,280.110944 797.515952,282.061139 C788.112631,284.011334 780.547202,284.385358 780.547202,284.385358 C780.547202,284.385358 786.799155,281.96153 800.84603,275.980084 C814.892905,269.998639 818.988608,267.165631 820.793295,265.017194 C822.597983,262.868756 822.810873,256.26817 815.197592,256.968365 C807.584311,257.668561 805.761069,261.071881 798.800131,264.061139 C791.839194,267.050397 786.638022,268.870709 779.835287,270.449811 C773.032553,272.028912 771.081381,272.155865 771.081381,272.155865 C771.081381,272.155865 776.101889,265.561139 782.661459,260.416608 C789.22103,255.272076 792.72103,253.644147 795.53353,250.254498 C798.34603,246.86485 798.071616,243.98399 795.140952,242.823834 C792.210287,241.663678 789.129233,243.384381 785.421225,245.081647 C781.713217,246.778912 777.873373,249.766217 770.12435,254.737897 C762.375327,259.709576 759.754233,262.817975 759.754233,262.817975 C759.754233,262.817975 753.203452,265.93028 746.626303,268.512311 C740.049155,271.094342 736.93978,273.530865 734.22103,272.80235 C731.50228,272.073834 728.664389,270.23399 728.474936,266.638287 C728.285483,263.042584 726.575522,262.892194 727.832358,257.39903 C729.089194,251.905865 726.325522,246.707623 723.016928,242.437115 C719.708334,238.166608 716.734702,239.762311 714.479819,241.051373 C712.224936,242.340436 711.133139,245.175397 711.657553,251.55528 C712.181967,257.935162 715.711264,267.025983 715.711264,267.025983 L715.217123,271.2086 C715.217123,271.2086 712.741537,273.931256 712.180991,275.843365 C711.620444,277.755475 710.93392,280.672467 713.753256,289.566022 C716.572592,298.459576 722.284506,307.091412 722.284506,307.091412 L717.959311,310.766217 C717.959311,310.766217 716.837241,316.732037 717.930991,322.241803 C719.024741,327.751569 717.341147,329.844342 717.341147,329.844342 L717.113608,333.089459 C717.113608,333.089459 713.055991,328.344342 711.18685,321.759381 C709.317709,315.17442 704.495444,314.870709 702.615561,314.069928 C700.735678,313.269147 698.632162,313.89903 698.632162,313.89903 C698.632162,313.89903 697.733725,311.135358 694.763998,302.48985 C691.794272,293.844342 686.864584,293.39024 683.198569,293.922467 C679.532553,294.454694 677.154623,290.813092 677.038412,285.987897 C676.922202,281.162701 674.039389,274.425397 668.075522,271.397076 C662.111655,268.368756 659.441733,260.525006 658.493491,256.245709 C657.545248,251.966412 659.664389,243.937115 657.884116,240.79649 C656.103842,237.655865 653.53353,236.590436 653.805014,230.61485 C654.076498,224.639264 648.197592,215.025983 644.805991,214.700787 C641.414389,214.375592 638.962241,216.090436 637.823569,216.000592 C636.684897,215.910748 632.900717,211.681256 627.409506,211.693951 C621.918295,211.706647 620.762045,208.223248 617.662436,208.368756 C614.562827,208.514264 613.626303,206.55235 609.335287,206.523053 C605.044272,206.493756 597.501303,203.58067 590.674155,202.935162 C583.847006,202.289655 574.948569,196.045514 574.948569,196.045514 C574.948569,196.045514 566.303061,180.35899 560.463217,165.2711 C554.623373,150.183209 551.821616,148.973248 550.830405,144.937115 C549.839194,140.900983 546.838217,135.256451 547.012045,132.287701 C547.185873,129.318951 549.907553,120.124615 549.481772,117.841412 C549.055991,115.558209 546.901694,115.023053 547.589194,113.012311 C548.276694,111.001569 548.198569,105.744733 550.856772,94.4263733 C553.514975,83.1080139 550.259116,73.6705139 547.206381,65.3628967 C544.153647,57.0552795 539.93685,54.8550842 538.492514,51.9117248 C537.048178,48.9683655 534.047202,45.1578186 529.623373,41.491803 C525.199545,37.8257873 520.900717,32.3228576 509.614584,27.6812561 C498.328452,23.0396545 490.603842,21.7769592 482.910483,22.0308655 C475.217123,22.2847717 468.784506,27.5015686 468.784506,27.5015686 Z" id="Path-3" fill="#FFF245"></path>
                <path d="M393.50053,376.665026 C393.50053,376.665026 390.778103,374.35257 387.154467,374.567259 C383.53083,374.781948 380.442097,376.624393 378.474114,378.942307 C376.50613,381.260222 374.399266,383.390738 374.399266,383.390738 C374.399266,383.390738 369.691874,387.837349 366.879083,398.916883 C364.066292,409.996417 362.550127,418.808373 361.709564,429.864861 C360.869002,440.921349 361.18679,447.936952 361.18679,447.936952 C361.18679,447.936952 358.569281,451.014769 358.198124,454.717852 C357.826967,458.420936 359.911392,462.1034 360.042995,464.04955 C360.174598,465.995701 360.009639,469.467114 358.254525,471.885702 C356.499412,474.30429 355.393217,475.101793 355.432031,476.573687 C355.470845,478.045581 358.207221,480.123334 358.036198,481.813556 C357.865174,483.503778 355.991799,484.75977 355.991799,484.75977 C355.991799,484.75977 353.284534,485.541505 352.18683,486.286852 C351.089125,487.032199 347.791161,488.17842 347.791161,488.17842 C347.791161,488.17842 344.829786,490.108196 344.798856,494.785871 C344.767927,499.463546 345.980253,500.493933 347.046421,501.038539 C348.112589,501.583146 349.829495,502.372159 349.829495,502.372159 C349.829495,502.372159 347.943384,503.093247 347.801471,504.591826 C347.659558,506.090404 347.957333,507.715734 350.14607,509.026914 C352.334807,510.338094 355.12334,512.821574 355.12334,512.821574 C355.12334,512.821574 352.634402,514.076353 349.127813,514.561526 C345.621225,515.046699 344.40344,513.587541 338.210812,515.527021 C332.018185,517.4665 333.818177,518.325256 329.06348,521.049503 C324.308784,523.77375 324.708446,525.325091 320.034409,526.343348 C315.360373,527.361605 307.962697,528.154257 301.055045,530.54616 C294.147393,532.938063 287.755238,532.890759 287.755238,532.890759 C287.755238,532.890759 285.551339,525.00427 285.280855,516.262058 C285.010371,507.519845 285.44824,501.104038 286.810363,491.680157 C288.172487,482.256276 291.805827,463.422464 292.224288,459.898894 C292.64275,456.375325 292.98601,453.525539 292.98601,453.525539 C292.98601,453.525539 295.790917,448.957028 297.006276,446.139992 C298.221634,443.322956 297.758294,438.790833 297.57696,433.553996 C297.395627,428.317159 297.506004,421.388887 298.185246,419.76659 C298.864488,418.144292 300.390964,414.899091 300.300601,413.096067 C300.210237,411.293042 299.603771,408.272233 300.34366,404.721373 C301.083549,401.170512 302.93691,396.589872 305.437977,388.281283 C307.939044,379.972694 309.207166,373.357359 308.942746,371.235333 C308.678327,369.113307 307.857172,367.13744 306.170589,367.276927 C304.484006,367.416414 302.979969,368.66149 302.203692,372.365786 C301.427415,376.070083 300.182946,379.589407 297.891716,385.740795 C295.600487,391.892183 293.872664,395.527949 292.468088,397.602671 C291.063512,399.677392 288.869316,401.071658 288.869316,401.071658 C288.869316,401.071658 286.433748,398.60334 285.790893,396.884008 C285.148039,395.164676 285.234764,392.735778 283.978772,385.579475 C282.72278,378.423172 282.785246,371.76781 279.691661,365.147624 C276.598076,358.527437 273.104224,358.726358 272.021681,359.207892 C270.939139,359.689427 271.150795,360.760446 271.27876,363.323373 C271.406724,365.8863 273.148496,371.501572 274.893299,379.247966 C276.638103,386.994361 276.857037,392.339149 276.441608,393.219738 C276.026179,394.100327 272.453485,392.008018 269.177354,393.277959 C265.901223,394.5479 266.559239,398.072076 267.240907,400.738102 C267.922575,403.404128 269.537595,406.458899 269.537595,406.458899 C269.537595,406.458899 265.810253,405.606207 263.727647,406.845824 C261.645042,408.085442 262.899821,412.083874 263.041734,415.125303 C263.183647,418.166732 262.464378,419.462144 263.171518,421.277904 C263.878657,423.093664 265.849673,425.666901 265.849673,425.666901 C265.849673,425.666901 265.883635,430.317892 266.320291,437.304384 C266.756947,444.290876 269.176748,450.619959 269.176748,450.619959 C269.176748,450.619959 267.797037,458.539197 264.66949,474.135086 C261.541943,489.730974 260.57099,492.59956 259.644916,496.806617 C258.718842,501.013674 254.549386,517.678763 253.772502,525.290522 C252.995619,532.902282 251.124064,534.328084 250.33687,538.919034 C249.549677,543.509985 250.262881,552.321334 251.235653,555.695107 C252.208425,559.068879 252.19569,563.756257 252.251485,567.016014 C252.307279,570.275771 254.110304,571.06539 256.764807,572.056962 C259.41931,573.048535 262.003463,576.815904 271.240553,583.502195 C280.477642,590.188487 286.706657,593.047976 293.328664,594.292445 C299.95067,595.536914 306.13602,594.435571 306.13602,594.435571 C306.13602,594.435571 309.131357,598.026458 312.415373,599.051386 C315.699388,600.076314 319.494048,596.650992 322.844168,595.996009 C326.194288,595.341025 326.655203,596.487853 327.547315,597.814195 C328.439427,599.140537 326.137887,600.859869 325.580544,608.722099 C325.023202,616.584328 324.880076,626.199246 326.211876,635.605539 C327.543676,645.011832 326.366525,651.023127 324.767879,661.989858 C323.169234,672.956589 322.508186,683.52851 322.302594,693.64073 C322.097001,703.75295 321.26311,706.134544 319.771809,717.101881 C318.280509,728.069219 319.269655,739.937159 317.920874,744.519618 C316.572093,749.102078 313.806606,759.452639 313.806606,759.452639 L556.917969,761.044963 C556.917969,761.044963 549.818296,619.407524 539.703745,587.9265 C529.589194,556.445476 522.56619,531.110994 508.018481,522.560419 C493.470773,514.009843 490.968164,513.605129 484.288543,512.375821 C477.608923,511.146514 478.01101,511.074345 473.853683,510.537015 C469.696357,509.999686 464.299412,506.259002 464.299412,506.259002 C464.299412,506.259002 466.744685,506.955225 470.519938,506.175916 C474.295191,505.396607 477.504611,501.483686 477.504611,501.483686 C477.504611,501.483686 473.017063,502.996516 470.091773,502.635062 C467.166482,502.273608 464.941357,500.186151 464.941357,500.186151 L464.705138,495.733172 C464.705138,495.733172 465.163021,498.047447 468.887027,498.955631 C472.611034,499.863814 474.825849,499.103305 476.130358,498.532014 C477.434867,497.960723 478.5259,496.158001 478.5259,496.158001 C478.5259,496.158001 475.667928,497.167465 473.114401,495.969087 C470.560874,494.77071 467.80024,492.064657 467.455463,490.333195 C467.110687,488.601734 467.054286,486.86815 466.174303,485.73709 C465.294321,484.60603 464.843716,483.120188 464.843716,483.120188 C464.843716,483.120188 468.780289,484.233357 470.854101,487.55285 C472.927913,490.872344 473.15837,493.246963 473.15837,493.246963 C473.15837,493.246963 474.578714,491.617994 474.739428,487.473403 C474.900141,483.328812 470.265828,477.742044 470.265828,477.742044 C470.265828,477.742044 471.08941,475.255229 470.752214,473.211134 C470.415019,471.167039 469.123852,467.657722 469.123852,467.657722 C469.123852,467.657722 470.770408,468.497071 472.511573,470.374084 C474.252738,472.251098 474.744582,477.076447 474.744582,477.076447 C474.744582,477.076447 475.813176,475.61547 475.814389,472.653488 C475.815602,469.691507 474.559913,467.236834 471.080616,463.875797 C467.601319,460.514761 466.993639,462.145246 465.090851,458.080405 C463.188063,454.015564 465.731886,453.301147 465.502642,449.22539 C465.273397,445.149633 462.771421,442.449644 460.10782,439.915525 C457.44422,437.381405 458.245665,436.015946 457.396006,431.253972 C456.546347,426.491999 455.65666,420.901895 452.270152,412.150889 C448.883644,403.399882 446.580285,402.351909 445.07261,399.993361 C443.564934,397.634813 441.062957,390.654386 431.06536,383.565704 C421.067762,376.477022 419.797215,373.936534 410.697794,373.513221 C401.598372,373.089907 397.451962,376.327831 396.231448,376.681401 C395.010935,377.034971 393.50053,376.665026 393.50053,376.665026 Z" id="Path-7" fill="#F6A623"></path>
                <g id="Group-3" opacity="0.75" transform="translate(175.000000, 213.000000)" stroke="#FFFFFF" stroke-width="2" stroke-linecap="round" stroke-linejoin="round">
                    <polyline id="Path-8" points="8.1610472 0.181640625 8.1610472 8.18164062 0.161047196 8.18164062"></polyline>
                    <polyline id="Path-8" transform="translate(24.161047, 4.181641) rotate(-270.000000) translate(-24.161047, -4.181641) " points="28.1610472 0.181640625 28.1610472 8.18164062 20.1610472 8.18164062"></polyline>
                    <polyline id="Path-8" transform="translate(4.161047, 24.181641) scale(1, -1) rotate(-90.000000) translate(-4.161047, -24.181641) " points="8.1610472 20.1816406 8.1610472 28.1816406 0.161047196 28.1816406"></polyline>
                    <polyline id="Path-8" transform="translate(24.161047, 24.181641) scale(1, -1) rotate(-180.000000) translate(-24.161047, -24.181641) " points="28.1610472 20.1816406 28.1610472 28.1816406 20.1610472 28.1816406"></polyline>
                    <polyline id="Path-8" points="48.1610472 0.181640625 48.1610472 8.18164062 40.1610472 8.18164062"></polyline>
                    <polyline id="Path-8" transform="translate(64.161047, 4.181641) rotate(-270.000000) translate(-64.161047, -4.181641) " points="68.1610472 0.181640625 68.1610472 8.18164062 60.1610472 8.18164062"></polyline>
                    <polyline id="Path-8" transform="translate(44.161047, 24.181641) scale(1, -1) rotate(-90.000000) translate(-44.161047, -24.181641) " points="48.1610472 20.1816406 48.1610472 28.1816406 40.1610472 28.1816406"></polyline>
                    <polyline id="Path-8" transform="translate(64.161047, 24.181641) scale(1, -1) rotate(-180.000000) translate(-64.161047, -24.181641) " points="68.1610472 20.1816406 68.1610472 28.1816406 60.1610472 28.1816406"></polyline>
                    <polyline id="Path-8" points="8.1610472 40.1816406 8.1610472 48.1816406 0.161047196 48.1816406"></polyline>
                    <polyline id="Path-8" transform="translate(24.161047, 44.181641) rotate(-270.000000) translate(-24.161047, -44.181641) " points="28.1610472 40.1816406 28.1610472 48.1816406 20.1610472 48.1816406"></polyline>
                    <polyline id="Path-8" transform="translate(4.161047, 64.181641) scale(1, -1) rotate(-90.000000) translate(-4.161047, -64.181641) " points="8.1610472 60.1816406 8.1610472 68.1816406 0.161047196 68.1816406"></polyline>
                    <polyline id="Path-8" transform="translate(24.161047, 64.181641) scale(1, -1) rotate(-180.000000) translate(-24.161047, -64.181641) " points="28.1610472 60.1816406 28.1610472 68.1816406 20.1610472 68.1816406"></polyline>
                    <polyline id="Path-8" points="48.1610472 40.1816406 48.1610472 48.1816406 40.1610472 48.1816406"></polyline>
                    <polyline id="Path-8" transform="translate(64.161047, 44.181641) rotate(-270.000000) translate(-64.161047, -44.181641) " points="68.1610472 40.1816406 68.1610472 48.1816406 60.1610472 48.1816406"></polyline>
                    <polyline id="Path-8" transform="translate(44.161047, 64.181641) scale(1, -1) rotate(-90.000000) translate(-44.161047, -64.181641) " points="48.1610472 60.1816406 48.1610472 68.1816406 40.1610472 68.1816406"></polyline>
                    <polyline id="Path-8" transform="translate(64.161047, 64.181641) scale(1, -1) rotate(-180.000000) translate(-64.161047, -64.181641) " points="68.1610472 60.1816406 68.1610472 68.1816406 60.1610472 68.1816406"></polyline>
                </g>
                <g id="Group" opacity="0.249150815" transform="translate(479.000000, 233.000000)" stroke="#000000" stroke-width="2" stroke-linecap="round" stroke-linejoin="round">
                    <path d="M8,60 L-4.4408921e-16,68" id="Path-8" transform="translate(4.000000, 64.000000) rotate(-180.000000) translate(-4.000000, -64.000000) "></path>
                    <polyline id="Path-8" transform="translate(24.000000, 64.000000) scale(-1, 1) rotate(-180.000000) translate(-24.000000, -64.000000) " points="28 60 28 68 20 68"></polyline>
                    <polyline id="Path-8" transform="translate(4.000000, 44.000000) scale(-1, 1) rotate(-180.000000) translate(-4.000000, -44.000000) " points="8 40 8 48 0 48"></polyline>
                    <path d="M28,40 L20,48" id="Path-8" transform="translate(24.000000, 44.000000) rotate(-180.000000) translate(-24.000000, -44.000000) "></path>
                    <path d="M48,60 L40,68" id="Path-8" transform="translate(44.000000, 64.000000) rotate(-180.000000) translate(-44.000000, -64.000000) "></path>
                    <polyline id="Path-8" transform="translate(64.000000, 64.000000) scale(-1, 1) rotate(-180.000000) translate(-64.000000, -64.000000) " points="68 60 68 68 60 68"></polyline>
                    <polyline id="Path-8" transform="translate(44.000000, 44.000000) scale(-1, 1) rotate(-180.000000) translate(-44.000000, -44.000000) " points="48 40 48 48 40 48"></polyline>
                    <path d="M68,40 L60,48" id="Path-8" transform="translate(64.000000, 44.000000) rotate(-180.000000) translate(-64.000000, -44.000000) "></path>
                    <path d="M8,20 L-4.4408921e-16,28" id="Path-8" transform="translate(4.000000, 24.000000) rotate(-180.000000) translate(-4.000000, -24.000000) "></path>
                    <polyline id="Path-8" transform="translate(24.000000, 24.000000) scale(-1, 1) rotate(-180.000000) translate(-24.000000, -24.000000) " points="28 20 28 28 20 28"></polyline>
                    <polyline id="Path-8" transform="translate(4.000000, 4.000000) scale(-1, 1) rotate(-180.000000) translate(-4.000000, -4.000000) " points="8 0 8 8 0 8"></polyline>
                    <path d="M28,0 L20,8" id="Path-8" transform="translate(24.000000, 4.000000) rotate(-180.000000) translate(-24.000000, -4.000000) "></path>
                    <path d="M48,20 L40,28" id="Path-8" transform="translate(44.000000, 24.000000) rotate(-180.000000) translate(-44.000000, -24.000000) "></path>
                    <polyline id="Path-8" transform="translate(64.000000, 24.000000) scale(-1, 1) rotate(-180.000000) translate(-64.000000, -24.000000) " points="68 20 68 28 60 28"></polyline>
                    <polyline id="Path-8" transform="translate(44.000000, 4.000000) scale(-1, 1) rotate(-180.000000) translate(-44.000000, -4.000000) " points="48 0 48 8 40 8"></polyline>
                    <path d="M68,0 L60,8" id="Path-8" transform="translate(64.000000, 4.000000) rotate(-180.000000) translate(-64.000000, -4.000000) "></path>
                </g>
                <g id="Group" opacity="0.249150815" transform="translate(559.000000, 233.000000)" stroke="#000000" stroke-width="2" stroke-linecap="round" stroke-linejoin="round">
                    <path d="M8,60 L-4.4408921e-16,68" id="Path-8" transform="translate(4.000000, 64.000000) rotate(-180.000000) translate(-4.000000, -64.000000) "></path>
                    <polyline id="Path-8" transform="translate(24.000000, 64.000000) scale(-1, 1) rotate(-180.000000) translate(-24.000000, -64.000000) " points="28 60 28 68 20 68"></polyline>
                    <polyline id="Path-8" transform="translate(4.000000, 44.000000) scale(-1, 1) rotate(-180.000000) translate(-4.000000, -44.000000) " points="8 40 8 48 -4.4408921e-16 48"></polyline>
                    <path d="M28,40 L20,48" id="Path-8" transform="translate(24.000000, 44.000000) rotate(-180.000000) translate(-24.000000, -44.000000) "></path>
                    <path d="M48,60 L40,68" id="Path-8" transform="translate(44.000000, 64.000000) rotate(-180.000000) translate(-44.000000, -64.000000) "></path>
                    <polyline id="Path-8" transform="translate(64.000000, 64.000000) scale(-1, 1) rotate(-180.000000) translate(-64.000000, -64.000000) " points="68 60 68 68 60 68"></polyline>
                    <polyline id="Path-8" transform="translate(44.000000, 44.000000) scale(-1, 1) rotate(-180.000000) translate(-44.000000, -44.000000) " points="48 40 48 48 40 48"></polyline>
                    <path d="M68,40 L60,48" id="Path-8" transform="translate(64.000000, 44.000000) rotate(-180.000000) translate(-64.000000, -44.000000) "></path>
                    <path d="M8,20 L-4.4408921e-16,28" id="Path-8" transform="translate(4.000000, 24.000000) rotate(-180.000000) translate(-4.000000, -24.000000) "></path>
                    <polyline id="Path-8" transform="translate(24.000000, 24.000000) scale(-1, 1) rotate(-180.000000) translate(-24.000000, -24.000000) " points="28 20 28 28 20 28"></polyline>
                    <polyline id="Path-8" transform="translate(4.000000, 4.000000) scale(-1, 1) rotate(-180.000000) translate(-4.000000, -4.000000) " points="8 0 8 8 -4.4408921e-16 8"></polyline>
                    <path d="M28,0 L20,8" id="Path-8" transform="translate(24.000000, 4.000000) rotate(-180.000000) translate(-24.000000, -4.000000) "></path>
                    <path d="M48,20 L40,28" id="Path-8" transform="translate(44.000000, 24.000000) rotate(-180.000000) translate(-44.000000, -24.000000) "></path>
                    <polyline id="Path-8" transform="translate(64.000000, 24.000000) scale(-1, 1) rotate(-180.000000) translate(-64.000000, -24.000000) " points="68 20 68 28 60 28"></polyline>
                    <polyline id="Path-8" transform="translate(44.000000, 4.000000) scale(-1, 1) rotate(-180.000000) translate(-44.000000, -4.000000) " points="48 0 48 8 40 8"></polyline>
                    <path d="M68,0 L60,8" id="Path-8" transform="translate(64.000000, 4.000000) rotate(-180.000000) translate(-64.000000, -4.000000) "></path>
                </g>
                <g id="Group-2" opacity="0.504925272" transform="translate(664.000000, 66.000000)" stroke="#FFFFFF" stroke-width="2" stroke-linecap="round" stroke-linejoin="round">
                    <circle id="Oval-3" cx="4" cy="4" r="4"></circle>
                    <polygon id="Triangle" points="24 0 28 8 20 8"></polygon>
                    <polygon id="Triangle" points="4 20 8 28 0 28"></polygon>
                    <circle id="Oval-3" cx="24" cy="24" r="4"></circle>
                    <circle id="Oval-3" cx="44" cy="4" r="4"></circle>
                    <polygon id="Triangle" points="64 0 68 8 60 8"></polygon>
                    <polygon id="Triangle" points="44 20 48 28 40 28"></polygon>
                    <circle id="Oval-3" cx="64" cy="24" r="4"></circle>
                    <circle id="Oval-3" cx="4" cy="44" r="4"></circle>
                    <polygon id="Triangle" points="24 40 28 48 20 48"></polygon>
                    <polygon id="Triangle" points="4 60 8 68 0 68"></polygon>
                    <circle id="Oval-3" cx="24" cy="64" r="4"></circle>
                    <circle id="Oval-3" cx="44" cy="44" r="4"></circle>
                    <polygon id="Triangle" points="64 40 68 48 60 48"></polygon>
                    <polygon id="Triangle" points="44 60 48 68 40 68"></polygon>
                    <circle id="Oval-3" cx="64" cy="64" r="4"></circle>
                </g>
                <g id="Group-4" opacity="0.5" transform="translate(345.000000, 548.000000)" stroke="#FFFFFF" stroke-width="2" stroke-linecap="round" stroke-linejoin="round">
                    <rect id="Rectangle-7" transform="translate(5.000000, 5.000000) rotate(-315.000000) translate(-5.000000, -5.000000) " x="2" y="2" width="6" height="6"></rect>
                    <circle id="Oval-4" cx="25" cy="5" r="4"></circle>
                    <rect id="Rectangle-7" transform="translate(45.242641, 5.242641) rotate(-315.000000) translate(-45.242641, -5.242641) " x="42.2426407" y="2.24264069" width="6" height="6"></rect>
                    <circle id="Oval-4" cx="65" cy="5" r="4"></circle>
                    <rect id="Rectangle-7" transform="translate(25.242641, 25.242641) rotate(-315.000000) translate(-25.242641, -25.242641) " x="22.2426407" y="22.2426407" width="6" height="6"></rect>
                    <circle id="Oval-4" cx="45" cy="25" r="4"></circle>
                    <rect id="Rectangle-7" transform="translate(65.242641, 25.242641) rotate(-315.000000) translate(-65.242641, -25.242641) " x="62.2426407" y="22.2426407" width="6" height="6"></rect>
                    <circle id="Oval-4" cx="5" cy="25" r="4"></circle>
                    <rect id="Rectangle-7" transform="translate(5.242641, 45.242641) rotate(-315.000000) translate(-5.242641, -45.242641) " x="2.24264069" y="42.2426407" width="6" height="6"></rect>
                    <circle id="Oval-4" cx="25" cy="45" r="4"></circle>
                    <rect id="Rectangle-7" transform="translate(45.242641, 45.242641) rotate(-315.000000) translate(-45.242641, -45.242641) " x="42.2426407" y="42.2426407" width="6" height="6"></rect>
                    <circle id="Oval-4" cx="65" cy="45" r="4"></circle>
                    <rect id="Rectangle-7" transform="translate(25.242641, 65.242641) rotate(-315.000000) translate(-25.242641, -65.242641) " x="22.2426407" y="62.2426407" width="6" height="6"></rect>
                    <circle id="Oval-4" cx="45" cy="65" r="4"></circle>
                    <rect id="Rectangle-7" transform="translate(65.242641, 65.242641) rotate(-315.000000) translate(-65.242641, -65.242641) " x="62.2426407" y="62.2426407" width="6" height="6"></rect>
                    <circle id="Oval-4" cx="5" cy="65" r="4"></circle>
                </g>
            </g>
        </g>
    </g>
</svg>